<svg width="1404" height="1872" viewBox="0 0 1404 1872" xmlns="http://www.w3.org/2000/svg" xmlns:xlink="http://www.w3.org/1999/xlink"  version="1.2" baseProfile="tiny"><title>H01 Notes</title>
<g><path fill="#bfbfbf" d="M352.706 1420.75 C352.706 1420.75 352.706 1420.75 352.706 1420.75 C356.95 1420.21 361.167 1419.39 365.437 1419.13 C366.154 1419.09 366.754 1419.83 367.473 1419.84 C368.181 1419.85 368.791 1419.2 369.5 1419.2 C369.888 1419.2 370.101 1419.72 370.47 1419.84 C370.817 1419.95 371.201 1419.9 371.563 1419.87 C380.533 1419.01 389.467 1417.75 398.459 1417.16 C399.192 1417.11 399.772 1417.92 400.503 1417.98 C402.825 1418.2 405.174 1418.19 407.496 1417.98 C408.211 1417.92 408.784 1417.23 409.5 1417.2 C409.887 1417.18 410.101 1417.72 410.47 1417.84 C410.817 1417.95 411.201 1417.9 411.563 1417.87 C420.532 1417.01 429.471 1415.81 438.457 1415.16 C438.884 1415.13 439.116 1415.87 439.542 1415.84 C468.862 1414.19 498.137 1411.8 527.457 1410.16 C527.884 1410.13 528.115 1410.87 528.542 1410.84 C533.868 1410.53 539.133 1409.49 544.457 1409.16 C544.864 1409.13 545.092 1409.79 545.5 1409.8 C545.888 1409.81 546.112 1409.19 546.5 1409.2 C546.891 1409.21 547.096 1409.75 547.474 1409.85 C548.127 1410.02 548.829 1410.09 549.496 1409.98 C550.204 1409.87 550.784 1409.23 551.5 1409.2 C551.906 1409.18 552.134 1409.85 552.54 1409.84 C554.139 1409.78 555.675 1409.15 557.268 1409.01 C569.32 1407.93 581.379 1406.88 593.458 1406.16 C593.865 1406.14 594.092 1406.8 594.5 1406.8 C594.89 1406.8 595.092 1406.23 595.474 1406.15 C596.143 1406 596.859 1405.99 597.526 1406.15 C597.907 1406.24 598.081 1406.84 598.473 1406.84 C599.181 1406.85 599.791 1406.2 600.5 1406.2 C600.908 1406.2 601.136 1406.87 601.542 1406.84 C605.872 1406.52 610.127 1405.47 614.458 1405.16 C614.884 1405.13 615.116 1405.86 615.543 1405.84 C624.187 1405.51 632.792 1404.44 641.437 1404.13 C642.177 1404.1 642.802 1404.87 643.543 1404.84 C650.531 1404.55 657.47 1403.48 664.457 1403.16 C664.883 1403.14 665.116 1403.88 665.541 1403.84 C668.88 1403.54 672.119 1402.46 675.458 1402.16 C675.883 1402.12 676.117 1402.87 676.542 1402.84 C685.203 1402.2 693.797 1400.8 702.458 1400.16 C702.864 1400.13 703.084 1400.71 703.47 1400.84 C703.815 1400.96 704.201 1400.91 704.563 1400.87 C712.866 1400.01 721.136 1398.81 729.458 1398.16 C729.882 1398.13 730.117 1398.88 730.539 1398.83 C734.459 1398.38 738.274 1397.24 742.181 1396.69 C749.252 1395.68 756.34 1394.75 763.458 1394.16 C763.883 1394.12 764.117 1394.88 764.542 1394.84 C785.438 1392.97 806.3 1390.72 827.157 1388.45 C835.941 1387.5 844.663 1386 853.458 1385.16 C853.863 1385.12 854.084 1385.71 854.47 1385.84 C854.815 1385.96 855.205 1385.93 855.563 1385.87 C858.21 1385.37 860.784 1384.47 863.459 1384.16 C863.866 1384.12 864.075 1384.76 864.474 1384.85 C865.153 1385.01 865.871 1384.95 866.562 1384.87 C878.273 1383.46 889.984 1382.03 901.662 1380.36 C905.622 1379.79 909.488 1378.64 913.461 1378.16 C913.863 1378.12 914.086 1378.71 914.47 1378.84 C914.816 1378.96 915.205 1378.93 915.563 1378.87 C918.203 1378.36 920.764 1377.41 923.437 1377.13 C924.172 1377.06 924.805 1377.92 925.539 1377.83 C927.575 1377.59 929.43 1376.45 931.461 1376.16 C931.88 1376.1 932.12 1376.89 932.538 1376.83 C934.915 1376.5 937.139 1375.41 939.506 1375.01 C940.5 1374.85 941.537 1374.95 942.526 1375.15 C942.909 1375.22 943.13 1375.92 943.5 1375.8 C944.311 1375.53 944.625 1374.27 945.472 1374.16 C946.828 1373.97 948.136 1375.16 949.494 1374.98 C950.936 1374.8 952.028 1373.46 953.446 1373.14 C954.771 1372.83 956.178 1372.97 957.526 1373.15 C957.925 1373.2 958.137 1373.92 958.529 1373.82 C959.62 1373.55 960.383 1372.46 961.471 1372.18 C961.859 1372.08 962.1 1372.82 962.5 1372.8 C963.213 1372.76 963.786 1372.05 964.5 1372.03 C965.138 1372.02 965.675 1372.88 966.291 1372.71 C967.007 1372.51 967.171 1371.43 967.84 1371.11 C968.347 1370.86 968.986 1371 969.528 1371.15 C969.906 1371.26 970.087 1371.79 970.474 1371.85 C971.476 1372.02 972.613 1372.29 973.524 1371.84 C973.936 1371.63 973.207 1370.96 973.201 1370.5 C973.199 1370.34 973.365 1370.08 973.503 1370.15 C974.313 1370.54 974.807 1371.68 975.707 1371.71 C976.418 1371.74 976.587 1370.33 977.297 1370.29 C977.986 1370.25 978.269 1371.55 978.959 1371.52 C979.64 1371.49 979.887 1370.5 980.474 1370.15 C980.771 1369.97 981.157 1370.02 981.504 1370.02 C982.179 1370.02 982.872 1369.98 983.526 1370.15 C983.904 1370.25 984.109 1370.79 984.5 1370.8 C984.888 1370.81 985.111 1370.22 985.498 1370.2 C985.813 1370.19 985.992 1370.8 986.295 1370.71 C986.962 1370.52 987.332 1369.74 987.976 1369.48 C988.229 1369.37 988.502 1369.78 988.764 1369.7 C990.04 1369.32 991.124 1368.34 992.44 1368.14 C993.167 1368.03 993.807 1368.93 994.534 1368.83 C997.248 1368.43 999.794 1367.25 1002.48 1366.68 C1005.01 1366.14 1007.58 1365.86 1010.14 1365.49 C1030.13 1362.64 1050.15 1360.01 1070.11 1357.02 C1070.94 1356.9 1071.63 1356.22 1072.47 1356.17 C1072.89 1356.15 1073.12 1356.89 1073.54 1356.84 C1075.98 1356.51 1078.34 1355.75 1080.7 1355.05 C1081.33 1354.87 1081.81 1354.23 1082.47 1354.18 C1082.87 1354.15 1083.08 1354.79 1083.47 1354.85 C1084.49 1355.02 1085.56 1355.11 1086.56 1354.87 C1087.94 1354.53 1089.08 1353.46 1090.47 1353.17 C1090.88 1353.09 1091.13 1353.91 1091.54 1353.83 C1100.23 1352.21 1108.74 1349.7 1117.44 1348.14 C1118.16 1348.01 1118.81 1348.97 1119.53 1348.82 C1120.63 1348.6 1121.38 1347.49 1122.45 1347.14 C1123.1 1346.92 1123.85 1347 1124.53 1347.15 C1124.92 1347.24 1125.14 1347.9 1125.54 1347.83 C1131.23 1346.89 1136.77 1345.12 1142.46 1344.17 C1142.88 1344.1 1143.13 1344.93 1143.53 1344.83 C1145.94 1344.23 1148.06 1342.77 1150.47 1342.17 C1150.87 1342.07 1151.13 1342.92 1151.54 1342.83 C1163.08 1340.34 1174.53 1337.41 1185.97 1334.5 C1188.51 1333.85 1190.9 1332.67 1193.47 1332.17 C1193.88 1332.09 1194.13 1332.92 1194.54 1332.83 C1197.81 1332.12 1200.89 1330.7 1204.12 1329.86 C1206.81 1329.16 1209.61 1328.98 1212.28 1328.21 C1212.79 1328.06 1212.94 1327.2 1213.47 1327.16 C1214.53 1327.07 1215.52 1328.06 1216.56 1327.86 C1227.66 1325.75 1238.62 1322.96 1249.6 1320.29 C1251.92 1319.72 1254.11 1318.6 1256.47 1318.17 C1256.88 1318.1 1257.13 1318.95 1257.54 1318.83 C1269.3 1315.44 1280.83 1311.29 1292.55 1307.77 C1301.5 1305.09 1310.62 1303.03 1319.54 1300.25 C1321.95 1299.49 1324.06 1297.92 1326.47 1297.18 C1326.85 1297.06 1327.15 1298 1327.5 1297.8 C1327.82 1297.62 1327.05 1297 1327.29 1296.72 C1328.58 1295.19 1330.02 1293.69 1331.78 1292.75 C1334.74 1291.16 1338.13 1290.56 1341.22 1289.25 C1341.73 1289.04 1341.96 1288.3 1342.5 1288.2 C1342.89 1288.13 1343.14 1288.93 1343.53 1288.82 C1345.61 1288.22 1347.38 1286.77 1349.47 1286.17 C1349.85 1286.06 1350.09 1286.72 1350.47 1286.84 C1350.82 1286.96 1351.21 1286.96 1351.56 1286.86 C1354.45 1286.11 1357.42 1285.5 1360.16 1284.31 C1361.06 1283.91 1361.72 1283.05 1362.25 1282.22 C1362.97 1281.1 1363.51 1279.84 1363.87 1278.56 C1364.06 1277.88 1364.09 1277.11 1363.87 1276.44 C1363.09 1274.16 1362.1 1271.94 1360.92 1269.84 C1360.55 1269.19 1359.61 1268.97 1359.29 1268.29 C1359.15 1268.01 1359.74 1267.8 1359.8 1267.49 C1359.82 1267.36 1359.64 1267.17 1359.5 1267.2 C1359.12 1267.29 1358.87 1267.93 1358.5 1267.8 C1357.69 1267.52 1357.37 1266.32 1356.53 1266.16 C1355.5 1265.96 1354.35 1267.39 1353.47 1266.83 C1352.62 1266.3 1353.48 1264.69 1352.9 1263.87 C1351.97 1262.54 1350.49 1261.68 1349.19 1260.71 C1348.37 1260.1 1347.54 1259.41 1346.55 1259.14 C1345.56 1258.87 1344.49 1258.98 1343.47 1259.15 C1343.09 1259.21 1342.89 1259.79 1342.5 1259.8 C1342.11 1259.81 1341.85 1259.04 1341.5 1259.2 C1340.18 1259.8 1339.14 1260.89 1338.05 1261.84 C1337.4 1262.4 1336.71 1262.96 1336.29 1263.71 C1336.18 1263.92 1336.84 1264.1 1336.7 1264.29 C1336.3 1264.84 1335.62 1265.15 1335 1265.46 C1331.94 1266.98 1328.98 1268.85 1325.69 1269.76 C1325.01 1269.94 1324.72 1268.31 1324.04 1268.48 C1322.99 1268.73 1322.77 1270.55 1321.71 1270.71 C1320.82 1270.84 1320.4 1269.1 1319.5 1269.15 C1318.94 1269.18 1320.02 1270.57 1319.52 1270.83 C1318.9 1271.16 1318.19 1270.04 1317.5 1270.2 C1316.67 1270.4 1316.31 1271.53 1315.5 1271.8 C1315.13 1271.92 1314.87 1271.08 1314.5 1271.2 C1313.69 1271.47 1313.31 1272.54 1312.5 1272.8 C1312.11 1272.92 1311.86 1272.09 1311.46 1272.16 C1304.76 1273.45 1298.24 1275.55 1291.54 1276.84 C1291.14 1276.91 1290.91 1276.21 1290.5 1276.2 C1290.11 1276.19 1289.89 1276.81 1289.5 1276.8 C1289.11 1276.79 1288.9 1276.28 1288.53 1276.16 C1288.18 1276.05 1287.78 1276.02 1287.44 1276.14 C1286.1 1276.6 1284.9 1277.4 1283.56 1277.87 C1283.01 1278.06 1282.34 1277.82 1281.84 1278.1 C1281.19 1278.47 1281 1279.49 1280.29 1279.71 C1279.69 1279.9 1279.11 1279.14 1278.47 1279.16 C1278.08 1279.17 1277.89 1279.79 1277.5 1279.8 C1277.11 1279.81 1276.87 1279.08 1276.5 1279.2 C1275.69 1279.47 1275.31 1280.54 1274.5 1280.8 C1274.13 1280.92 1273.91 1280.21 1273.53 1280.15 C1272.51 1279.98 1271.44 1279.89 1270.44 1280.13 C1267.81 1280.77 1265.26 1281.74 1262.75 1282.77 C1262.25 1282.97 1262.03 1283.7 1261.5 1283.8 C1261.12 1283.87 1260.89 1283.2 1260.5 1283.2 C1260.11 1283.2 1259.89 1283.81 1259.5 1283.8 C1259.11 1283.79 1258.9 1283.27 1258.53 1283.16 C1258.19 1283.05 1257.78 1282.99 1257.47 1283.16 C1256.72 1283.57 1256.31 1284.53 1255.5 1284.8 C1255.13 1284.92 1254.91 1284.23 1254.53 1284.15 C1253.85 1284 1253.12 1284.01 1252.44 1284.13 C1245.94 1285.26 1239.46 1286.51 1233 1287.87 C1230.49 1288.41 1228.08 1289.45 1225.54 1289.83 C1225.12 1289.9 1224.87 1289.05 1224.46 1289.17 C1208.07 1293.76 1191.93 1299.24 1175.53 1303.83 C1175.13 1303.94 1174.87 1303.07 1174.47 1303.17 C1167.75 1304.77 1161.25 1307.23 1154.53 1308.83 C1154.13 1308.93 1153.87 1308.07 1153.47 1308.17 C1151.07 1308.77 1148.93 1310.23 1146.53 1310.83 C1146.13 1310.93 1145.87 1310.07 1145.47 1310.18 C1144.39 1310.46 1143.66 1311.64 1142.55 1311.86 C1141.84 1312 1141.19 1311.06 1140.47 1311.17 C1139.14 1311.38 1137.96 1312.12 1136.77 1312.75 C1136.29 1313.01 1136.04 1313.7 1135.5 1313.8 C1135.12 1313.87 1134.9 1313.28 1134.53 1313.16 C1134.18 1313.05 1133.78 1313 1133.44 1313.14 C1132.42 1313.58 1131.65 1314.62 1130.55 1314.86 C1129.85 1315.01 1129.2 1314.03 1128.5 1314.2 C1127.67 1314.4 1127.37 1315.68 1126.53 1315.84 C1125.5 1316.04 1124.51 1315.06 1123.47 1315.16 C1122.93 1315.21 1122.74 1316.01 1122.25 1316.23 C1120.74 1316.92 1119.2 1317.66 1117.56 1317.86 C1116.63 1317.98 1115.77 1317 1114.84 1317.14 C1114.09 1317.25 1113.72 1318.22 1113.02 1318.52 C1112.78 1318.63 1112.52 1318.22 1112.25 1318.28 C1110.64 1318.66 1109.17 1319.57 1107.54 1319.83 C1107.14 1319.9 1106.9 1319.13 1106.5 1319.2 C1105.97 1319.29 1105.76 1320.03 1105.26 1320.22 C1103.41 1320.92 1101.5 1321.56 1099.54 1321.83 C1099.13 1321.89 1098.88 1321.08 1098.47 1321.18 C1096.8 1321.56 1095.37 1322.7 1093.72 1323.17 C1089.36 1324.41 1084.93 1325.42 1080.48 1326.28 C1070.77 1328.17 1061.01 1329.74 1051.26 1331.42 C1046.36 1332.26 1041.48 1333.29 1036.54 1333.84 C1036.12 1333.89 1035.88 1333.1 1035.46 1333.16 C1033.43 1333.45 1031.57 1334.54 1029.54 1334.83 C1029.14 1334.89 1028.91 1334.29 1028.53 1334.16 C1028.18 1334.04 1027.8 1334.09 1027.44 1334.13 C1017.8 1335.32 1008.2 1336.86 998.542 1337.84 C998.117 1337.88 997.882 1337.11 997.458 1337.16 C981.451 1339.12 965.548 1341.88 949.541 1343.84 C949.138 1343.89 948.915 1343.29 948.53 1343.16 C948.184 1343.04 947.798 1343.08 947.437 1343.13 C939.13 1344.31 930.875 1345.87 922.541 1346.84 C922.119 1346.89 921.882 1346.11 921.459 1346.16 C918.778 1346.46 916.222 1347.54 913.54 1347.84 C913.118 1347.88 912.882 1347.12 912.459 1347.16 C898.46 1348.46 884.538 1350.52 870.541 1351.84 C870.136 1351.88 869.907 1351.21 869.5 1351.2 C869.112 1351.19 868.889 1351.8 868.5 1351.8 C868.111 1351.8 867.888 1351.2 867.5 1351.2 C867.111 1351.2 866.888 1351.8 866.5 1351.8 C866.111 1351.8 865.868 1351.08 865.499 1351.2 C864.69 1351.47 864.313 1352.54 863.5 1352.8 C863.128 1352.92 862.908 1352.23 862.526 1352.15 C861.857 1352 861.142 1352 860.474 1352.15 C860.092 1352.23 859.891 1352.8 859.5 1352.8 C859.093 1352.8 858.864 1352.12 858.458 1352.16 C855.121 1352.48 851.885 1353.6 848.541 1353.84 C847.812 1353.89 847.23 1352.95 846.503 1353.03 C844.119 1353.29 841.913 1354.5 839.539 1354.83 C839.137 1354.89 838.933 1354.16 838.527 1354.16 C837.818 1354.15 837.208 1354.82 836.5 1354.8 C835.787 1354.78 835.212 1353.95 834.503 1354.03 C831.449 1354.35 828.552 1355.66 825.497 1355.97 C824.789 1356.04 824.218 1355.31 823.526 1355.15 C822.87 1354.99 822.173 1354.91 821.507 1355.01 C818.381 1355.52 815.282 1356.2 812.214 1356.99 C811.606 1357.14 811.153 1357.78 810.527 1357.82 C810.125 1357.84 809.918 1357.24 809.526 1357.15 C808.847 1357 808.126 1357.02 807.438 1357.13 C805.957 1357.37 804.545 1357.95 803.063 1358.18 C797.881 1358.99 792.677 1359.66 787.466 1360.24 C780.731 1361 773.985 1361.68 767.227 1362.2 C744.994 1363.92 722.729 1365.21 700.496 1366.94 C698.494 1367.09 696.547 1367.76 694.541 1367.84 C694.134 1367.85 693.907 1367.21 693.5 1367.2 C693.112 1367.19 692.888 1367.81 692.5 1367.8 C692.109 1367.79 691.909 1367.22 691.526 1367.15 C690.536 1366.95 689.51 1367 688.5 1367 C687.823 1367 687.128 1366.97 686.474 1367.15 C686.096 1367.25 685.89 1367.81 685.5 1367.8 C684.786 1367.77 684.214 1367.03 683.5 1367.03 C682.786 1367.03 682.214 1367.77 681.5 1367.8 C681.092 1367.82 680.865 1367.14 680.457 1367.16 C673.471 1367.49 666.532 1368.58 659.543 1368.84 C658.811 1368.87 658.234 1367.99 657.503 1368.03 C651.825 1368.33 646.217 1369.49 640.542 1369.84 C640.116 1369.87 639.884 1369.13 639.457 1369.16 C633.783 1369.51 628.177 1370.73 622.497 1370.97 C621.448 1371.02 620.532 1370.19 619.496 1370.02 C618.829 1369.91 618.125 1369.97 617.474 1370.15 C617.077 1370.26 616.867 1370.85 616.457 1370.84 C603.127 1370.47 589.819 1369.52 576.493 1369.01 C573.832 1368.91 571.158 1368.81 568.503 1369.01 C567.789 1369.07 567.216 1369.75 566.5 1369.8 C566.112 1369.82 565.888 1369.18 565.5 1369.2 C564.787 1369.24 564.214 1369.97 563.5 1369.97 C562.786 1369.97 562.213 1369.24 561.5 1369.2 C561.112 1369.18 560.888 1369.8 560.5 1369.8 C560.111 1369.8 559.888 1369.19 559.5 1369.2 C558.777 1369.22 558.159 1369.9 557.437 1369.87 C549.078 1369.53 540.737 1368.83 532.404 1368.09 C526.769 1367.6 521.186 1366.55 515.542 1366.16 C515.117 1366.13 514.883 1366.88 514.458 1366.84 C511.119 1366.54 507.88 1365.46 504.541 1365.16 C504.117 1365.12 503.883 1365.88 503.458 1365.84 C492.111 1364.82 480.875 1362.53 469.493 1362.01 C452.514 1361.25 435.498 1361.75 418.503 1362.01 C417.789 1362.03 417.241 1362.81 416.527 1362.84 C415.819 1362.88 415.208 1362.18 414.5 1362.2 C413.783 1362.23 413.21 1362.91 412.496 1362.98 C410.509 1363.18 408.496 1363.16 406.507 1362.99 C404.34 1362.8 402.233 1362.16 400.072 1361.91 C393.908 1361.22 387.736 1360.54 381.544 1360.16 C381.209 1360.14 381.017 1360.83 380.705 1360.71 C380.082 1360.47 379.947 1359.44 379.296 1359.29 C378.668 1359.15 378.138 1359.93 377.497 1359.98 C375.173 1360.17 372.831 1360.12 370.504 1359.98 C370.041 1359.96 369.397 1359.92 369.199 1359.51 C369.032 1359.15 369.708 1358.88 369.8 1358.49 C369.834 1358.36 369.665 1358.15 369.525 1358.17 C368.491 1358.32 367.54 1358.92 366.496 1358.98 C363.172 1359.19 359.832 1359.13 356.504 1358.98 C356.041 1358.96 355.397 1358.92 355.2 1358.51 C355.032 1358.15 355.708 1357.88 355.8 1357.49 C355.834 1357.35 355.659 1357.21 355.524 1357.16 C355.2 1357.05 354.837 1356.96 354.5 1357.03 C353.801 1357.18 353.213 1357.77 352.5 1357.8 C352.112 1357.82 351.916 1357.16 351.527 1357.16 C350.818 1357.16 350.209 1357.8 349.5 1357.8 C349.111 1357.8 348.916 1357.16 348.527 1357.16 C347.818 1357.16 347.209 1357.8 346.5 1357.8 C346.111 1357.8 345.898 1357.27 345.527 1357.16 C345.192 1357.05 344.812 1357.06 344.473 1357.16 C343.784 1357.35 343.21 1357.95 342.496 1357.98 C337.505 1358.23 332.496 1358.22 327.503 1357.98 C326.787 1357.95 326.216 1357.23 325.5 1357.2 C325.11 1357.18 324.909 1357.78 324.526 1357.85 C323.538 1358.05 322.507 1358.11 321.507 1357.99 C317.835 1357.53 314.248 1356.47 310.563 1356.13 C309.843 1356.07 309.222 1356.82 308.5 1356.8 C307.786 1356.78 307.214 1356.03 306.5 1356.03 C305.774 1356.03 305.186 1356.95 304.471 1356.82 C303.366 1356.62 302.609 1355.52 301.554 1355.14 C300.91 1354.9 300.186 1355.01 299.5 1355 C294.487 1354.97 289.46 1354.66 284.46 1355.02 C283.694 1355.07 283.267 1356.22 282.5 1356.22 C281.733 1356.22 281.251 1355.31 280.54 1355.02 C280.218 1354.89 279.845 1355 279.497 1355 C274.833 1355 270.162 1354.77 265.503 1355.01 C264.79 1355.05 264.241 1355.82 263.527 1355.84 C262.823 1355.87 262.232 1355.16 261.527 1355.16 C260.818 1355.15 260.209 1355.79 259.5 1355.8 C259.112 1355.8 258.888 1355.2 258.5 1355.2 C258.111 1355.2 257.888 1355.82 257.5 1355.8 C256.784 1355.76 256.204 1355.13 255.496 1355.02 C254.829 1354.91 254.127 1354.98 253.474 1355.15 C253.096 1355.25 252.89 1355.81 252.5 1355.8 C251.786 1355.77 251.214 1355.02 250.5 1355.03 C249.787 1355.04 249.226 1355.72 248.526 1355.85 C247.535 1356.04 246.51 1355.99 245.5 1356 C242.835 1356.03 240.159 1356.21 237.503 1355.98 C236.79 1355.92 236.229 1355.28 235.526 1355.15 C234.536 1354.96 233.502 1354.88 232.503 1355.02 C231.46 1355.16 230.545 1355.88 229.496 1355.98 C227.176 1356.21 224.825 1356.2 222.504 1355.98 C221.792 1355.92 221.241 1355.18 220.527 1355.16 C219.802 1355.13 219.182 1355.9 218.459 1355.84 C215.447 1355.57 212.551 1354.46 209.541 1354.16 C209.136 1354.12 208.935 1354.84 208.527 1354.84 C207.819 1354.85 207.209 1354.2 206.5 1354.2 C206.111 1354.2 205.916 1354.84 205.527 1354.84 C204.818 1354.84 204.209 1354.2 203.5 1354.2 C203.092 1354.2 202.864 1354.87 202.458 1354.84 C198.466 1354.51 194.558 1353.43 190.563 1353.13 C189.843 1353.08 189.222 1353.82 188.5 1353.8 C187.783 1353.78 187.204 1353.13 186.496 1353.02 C185.829 1352.91 185.127 1352.98 184.474 1353.15 C184.096 1353.25 183.89 1353.82 183.5 1353.8 C182.784 1353.77 182.211 1353.08 181.496 1353.02 C179.173 1352.81 176.832 1352.97 174.5 1353 C173.823 1353.01 173.131 1352.99 172.474 1353.15 C171.779 1353.32 171.211 1353.94 170.496 1353.98 C166.84 1354.22 163.142 1354.43 159.506 1353.99 C158.063 1353.81 156.961 1352.51 155.554 1352.14 C154.551 1351.87 153.451 1351.89 152.441 1352.13 C151.142 1352.44 149.848 1352.96 148.775 1353.75 C147.388 1354.78 146.108 1356.03 145.201 1357.5 C144.99 1357.84 145.927 1358.14 145.823 1358.53 C145.528 1359.62 144.153 1360.34 144.129 1361.47 C144.109 1362.39 145.406 1362.85 145.711 1363.71 C145.816 1364.01 145.124 1364.2 145.203 1364.5 C145.288 1364.83 145.849 1364.78 146.059 1365.05 C146.712 1365.87 146.962 1367.01 147.748 1367.7 C147.975 1367.9 148.236 1367.07 148.506 1367.2 C149.269 1367.59 149.534 1368.7 150.334 1369 C153.682 1370.25 157.454 1370.26 160.695 1371.76 C161.26 1372.03 160.074 1372.88 160.015 1373.5 C159.888 1374.84 159.652 1376.28 160.149 1377.53 C160.639 1378.76 162.191 1379.32 162.799 1380.5 C162.978 1380.85 162.291 1381.13 162.2 1381.51 C162.166 1381.65 162.335 1381.81 162.476 1381.84 C163.28 1381.99 164.563 1381.29 164.925 1382.03 C166.282 1384.78 165.989 1388.1 166.991 1391.01 C167.308 1391.92 168.017 1392.72 168.809 1393.28 C169.887 1394.04 171.168 1394.52 172.441 1394.87 C173.111 1395.05 173.847 1395 174.526 1394.85 C174.908 1394.77 175.109 1394.21 175.5 1394.2 C175.888 1394.19 176.132 1394.92 176.501 1394.8 C177.31 1394.53 177.687 1393.46 178.499 1393.2 C178.869 1393.08 179.084 1393.85 179.473 1393.84 C180.199 1393.83 180.818 1393.1 181.541 1393.16 C184.883 1393.44 188.119 1394.54 191.459 1394.84 C191.866 1394.88 192.074 1394.24 192.474 1394.15 C193.141 1394 193.857 1394 194.526 1394.15 C194.908 1394.23 195.109 1394.79 195.5 1394.8 C195.9 1394.8 196.147 1394.06 196.528 1394.18 C197.445 1394.47 198.391 1395.03 198.865 1395.87 C199.117 1396.31 198.012 1396.86 198.292 1397.28 C199.119 1398.54 200.338 1399.63 201.725 1400.21 C204.164 1401.23 207.007 1400.98 209.461 1401.96 C210.468 1402.37 210.863 1403.67 211.781 1404.25 C212.707 1404.84 213.796 1405.15 214.868 1405.38 C228.367 1408.18 241.888 1410.89 255.457 1413.34 C263.09 1414.71 270.756 1415.93 278.46 1416.84 C278.882 1416.89 279.118 1416.12 279.541 1416.16 C282.9 1416.51 286.163 1417.51 289.507 1417.98 C290.175 1418.08 290.875 1418.03 291.526 1417.85 C291.922 1417.74 292.133 1417.13 292.542 1417.16 C307.2 1418.13 321.8 1419.87 336.458 1420.84 C336.867 1420.87 337.078 1420.26 337.474 1420.15 C338.126 1419.97 338.823 1420 339.5 1420 C341.176 1420 342.865 1419.93 344.526 1420.15 C344.913 1420.2 345.109 1420.8 345.5 1420.8 C345.891 1420.8 346.088 1420.21 346.474 1420.15 C347.799 1419.94 349.161 1419.89 350.496 1420.01 M369.557 1410.84 C369.557 1410.84 369.557 1410.84 369.557 1410.84 C369.206 1410.62 368.915 1410.19 368.505 1410.2 C368.112 1410.2 367.905 1410.75 367.526 1410.85 C366.872 1411.03 366.177 1411 365.5 1411 C347.501 1411.04 329.5 1411.26 311.503 1410.98 C310.789 1410.97 310.241 1410.18 309.527 1410.16 C308.801 1410.13 308.183 1410.88 307.457 1410.84 C301.707 1410.57 295.915 1410.32 290.261 1409.24 C289.627 1409.11 290.915 1407.92 291.547 1407.79 C292.049 1407.68 292.276 1408.75 292.786 1408.7 C294.418 1408.53 295.842 1407.42 297.463 1407.17 C297.863 1407.1 298.095 1407.79 298.5 1407.8 C298.888 1407.81 299.112 1407.18 299.5 1407.2 C300.216 1407.24 300.789 1407.93 301.503 1407.98 C304.16 1408.19 306.84 1408.19 309.496 1407.98 C310.211 1407.93 310.784 1407.23 311.5 1407.2 C311.89 1407.18 312.087 1407.8 312.474 1407.85 C314.135 1408.07 315.824 1408 317.5 1408 C318.177 1408 318.872 1408.03 319.526 1407.85 C319.904 1407.75 320.109 1407.21 320.5 1407.2 C320.888 1407.19 321.112 1407.81 321.5 1407.8 C321.891 1407.79 322.096 1407.25 322.474 1407.15 C323.127 1406.98 323.83 1406.9 324.496 1407.02 C325.221 1407.14 325.808 1407.88 326.542 1407.84 C331.539 1407.59 336.464 1406.47 341.458 1406.16 C341.865 1406.13 342.064 1406.84 342.472 1406.84 C343.181 1406.85 343.791 1406.2 344.5 1406.2 C344.908 1406.2 345.135 1406.86 345.543 1406.84 C355.518 1406.5 365.461 1405.46 375.437 1405.13 C376.159 1405.11 376.777 1405.78 377.5 1405.8 C377.888 1405.81 378.112 1405.19 378.5 1405.2 C378.908 1405.21 379.135 1405.86 379.543 1405.84 C388.859 1405.51 398.141 1404.49 407.457 1404.16 C407.865 1404.14 408.092 1404.79 408.5 1404.8 C408.888 1404.81 409.112 1404.18 409.5 1404.2 C410.216 1404.24 410.796 1404.87 411.504 1404.98 C412.17 1405.09 412.869 1405.01 413.526 1404.85 C414.222 1404.68 414.793 1404.1 415.503 1404.01 C417.156 1403.82 418.843 1403.83 420.497 1404.01 C421.209 1404.09 421.784 1404.76 422.5 1404.8 C422.888 1404.82 423.084 1404.16 423.473 1404.16 C424.182 1404.16 424.791 1404.8 425.5 1404.8 C425.889 1404.8 426.102 1404.27 426.473 1404.16 C426.808 1404.05 427.188 1404.07 427.527 1404.16 C428.214 1404.34 428.789 1404.96 429.5 1404.97 C430.214 1404.98 430.786 1404.2 431.5 1404.2 C432.214 1404.2 432.786 1404.97 433.5 1404.97 C434.214 1404.97 434.787 1404.24 435.5 1404.2 C435.888 1404.18 436.112 1404.81 436.5 1404.8 C436.891 1404.79 437.087 1404.2 437.474 1404.15 C439.134 1403.93 440.829 1403.86 442.496 1404.01 C443.211 1404.08 443.784 1404.76 444.5 1404.8 C444.888 1404.82 445.102 1404.27 445.473 1404.16 C445.808 1404.05 446.31 1403.89 446.525 1404.17 C446.741 1404.45 446.621 1405.11 446.28 1405.2 C443.087 1406.1 439.793 1406.66 436.493 1406.99 C433.843 1407.25 431.158 1407.2 428.503 1406.98 C427.772 1406.92 427.191 1406.09 426.46 1406.16 C423.751 1406.43 421.205 1407.7 418.497 1407.97 C417.769 1408.04 417.188 1407.11 416.459 1407.16 C413.121 1407.41 409.899 1408.59 406.563 1408.87 C405.825 1408.93 405.197 1408.12 404.458 1408.16 M289.541 1408.82 C289.541 1408.82 289.541 1408.82 289.541 1408.82 C289.092 1408.71 288.207 1408.96 288.195 1408.5 C288.184 1408.05 289.08 1408.07 289.524 1408.17 M453.544 1405.81 C453.544 1405.81 453.544 1405.81 453.544 1405.81 C453.207 1405.59 452.935 1405.15 452.533 1405.15 C451.811 1405.16 451.18 1405.96 450.472 1405.82 C449.603 1405.65 447.444 1404.59 448.285 1404.31 C450.585 1403.55 453.22 1403.48 455.548 1404.15 M469.545 1404.82 C469.545 1404.82 469.545 1404.82 469.545 1404.82 C468.866 1404.88 468.187 1405.05 467.509 1404.98 C467.045 1404.94 465.864 1404.83 466.198 1404.5 C466.757 1403.95 467.713 1404.02 468.496 1404.02 C468.962 1404.02 469.437 1404.22 469.806 1404.5 M464.54 1404.82 C464.54 1404.82 464.54 1404.82 464.54 1404.82 C464.092 1404.71 463.207 1404.96 463.195 1404.5 C463.184 1404.05 464.079 1404.07 464.524 1404.17 M461.541 1404.82 C461.541 1404.82 461.541 1404.82 461.541 1404.82 C461.092 1404.71 460.207 1404.96 460.195 1404.5 C460.183 1404.05 461.079 1404.07 461.524 1404.17 M606.545 1393.82 C606.545 1393.82 606.545 1393.82 606.545 1393.82 C601.198 1393.88 595.85 1394.08 590.503 1393.98 C590.039 1393.98 589.198 1393.96 589.198 1393.5 C589.198 1393.04 590.039 1393.03 590.503 1393.02 C595.499 1392.87 600.501 1392.87 605.496 1393.02 C605.962 1393.03 606.437 1393.22 606.806 1393.5 M652.575 1392.85 C652.575 1392.85 652.575 1392.85 652.575 1392.85 C651.883 1392.63 651.224 1392.2 650.5 1392.2 C650.111 1392.2 649.916 1392.84 649.527 1392.84 C648.818 1392.84 648.209 1392.21 647.5 1392.2 C647.112 1392.19 646.888 1392.8 646.5 1392.8 C646.111 1392.8 645.889 1392.2 645.5 1392.2 C645.112 1392.2 644.888 1392.81 644.5 1392.8 C644.112 1392.79 643.916 1392.16 643.527 1392.16 C642.816 1392.16 642.177 1393 641.494 1392.8 C641.056 1392.67 640.941 1391.87 641.165 1391.47 C641.397 1391.06 642.033 1391.03 642.504 1391.02 C647.187 1390.91 651.947 1390.3 656.555 1391.14 M635.545 1392.82 C635.545 1392.82 635.545 1392.82 635.545 1392.82 C633.531 1392.88 631.516 1393.07 629.503 1392.98 C629.04 1392.96 628.198 1392.96 628.198 1392.5 C628.198 1392.04 629.041 1392.05 629.503 1392.02 C631.163 1391.89 632.837 1391.89 634.496 1392.02 C634.961 1392.05 635.437 1392.22 635.806 1392.5 M682.55 1391.83 C682.55 1391.83 682.55 1391.83 682.55 1391.83 C681.524 1391.83 680.424 1392.22 679.472 1391.84 C679.037 1391.67 678.917 1390.87 679.165 1390.47 C679.413 1390.08 680.066 1390.09 680.527 1390.16 C680.912 1390.21 681.112 1390.79 681.5 1390.8 C681.89 1390.81 682.164 1390.01 682.506 1390.2 C682.907 1390.42 682.824 1391.08 682.837 1391.53 M669.541 1391.82 C669.541 1391.82 669.541 1391.82 669.541 1391.82 C669.092 1391.71 668.207 1391.96 668.195 1391.5 C668.183 1391.05 669.079 1391.07 669.524 1391.17 M660.541 1391.82 C660.541 1391.82 660.541 1391.82 660.541 1391.82 C660.092 1391.71 659.207 1391.96 659.195 1391.5 C659.183 1391.05 660.079 1391.07 660.524 1391.17 M697.549 1390.83 C697.549 1390.83 697.549 1390.83 697.549 1390.83 C696.795 1390.78 695.318 1391.44 695.286 1390.69 C695.248 1389.8 696.593 1389.12 697.479 1389.18 M693.541 1390.82 C693.541 1390.82 693.541 1390.82 693.541 1390.82 C693.092 1390.71 692.207 1390.96 692.195 1390.5 C692.183 1390.05 693.079 1390.07 693.524 1390.17 M690.545 1390.82 C690.545 1390.82 690.545 1390.82 690.545 1390.82 C689.856 1390.83 689.161 1390.93 688.479 1390.84 C688.334 1390.82 688.058 1390.55 688.198 1390.5 C688.941 1390.25 689.747 1390.06 690.523 1390.16 M279.576 1387.85 C279.576 1387.85 279.576 1387.85 279.576 1387.85 C278.542 1387.62 277.533 1387.17 276.473 1387.16 C276.084 1387.15 275.888 1387.79 275.5 1387.8 C275.112 1387.81 274.888 1387.18 274.5 1387.2 C273.784 1387.24 273.213 1387.95 272.496 1387.98 C267.171 1388.22 261.829 1388.22 256.503 1387.98 C255.787 1387.95 255.217 1387.2 254.5 1387.2 C253.786 1387.2 253.214 1387.98 252.5 1387.97 C251.787 1387.96 251.219 1387.32 250.526 1387.15 C249.868 1386.99 249.177 1387 248.5 1387 C247.823 1387 247.127 1386.97 246.474 1387.15 C246.08 1387.26 245.865 1387.89 245.46 1387.84 C243.111 1387.54 240.916 1386.4 238.563 1386.13 C237.829 1386.05 237.194 1386.92 236.461 1386.83 C234.425 1386.59 232.568 1385.47 230.539 1385.16 C230.137 1385.1 229.906 1385.79 229.5 1385.8 C229.112 1385.81 228.888 1385.19 228.5 1385.2 C228.095 1385.21 227.861 1385.91 227.463 1385.83 C226.003 1385.56 224.41 1385.23 223.305 1384.23 C222.909 1383.88 224.008 1383.41 224.474 1383.15 C224.776 1382.98 225.157 1383.02 225.504 1383.02 C226.179 1383.02 226.873 1382.98 227.526 1383.15 C227.904 1383.25 228.109 1383.79 228.5 1383.8 C228.888 1383.81 229.112 1383.19 229.5 1383.2 C229.888 1383.21 230.084 1383.85 230.473 1383.84 C231.177 1383.83 231.768 1383.16 232.473 1383.16 C233.182 1383.15 233.791 1383.79 234.5 1383.8 C234.888 1383.8 235.112 1383.19 235.5 1383.2 C235.89 1383.21 236.096 1383.75 236.474 1383.85 C237.128 1384.03 237.823 1384 238.5 1384 C239.51 1384 240.536 1384.05 241.526 1383.85 C241.909 1383.78 242.11 1383.18 242.5 1383.2 C243.216 1383.23 243.796 1383.87 244.504 1383.98 C245.171 1384.09 245.873 1384.02 246.526 1383.85 C246.904 1383.75 247.109 1383.2 247.5 1383.2 C247.889 1383.2 248.102 1383.73 248.473 1383.84 C248.808 1383.95 249.188 1383.94 249.527 1383.84 C250.216 1383.65 250.8 1383.14 251.504 1383.02 C252.169 1382.9 252.869 1382.99 253.526 1383.15 C254.219 1383.31 254.787 1383.96 255.5 1383.97 C256.214 1383.98 256.786 1383.23 257.5 1383.2 C257.89 1383.19 258.096 1383.76 258.474 1383.85 C259.142 1384.02 259.874 1384.16 260.54 1383.98 C261.282 1383.78 261.734 1382.8 262.502 1382.77 C263.259 1382.75 263.745 1383.76 264.495 1383.86 C264.892 1383.92 265.099 1383.2 265.5 1383.2 C265.888 1383.2 266.102 1383.73 266.473 1383.84 C266.808 1383.95 267.188 1383.94 267.527 1383.84 C268.216 1383.65 268.792 1383.08 269.503 1383.02 C271.824 1382.8 274.201 1382.6 276.494 1383.01 C280.061 1383.66 284.957 1383.1 286.904 1386.15 M391.353 1383.69 C391.353 1383.69 391.353 1383.69 391.353 1383.69 C389.415 1383.18 387.527 1382.41 385.539 1382.16 C385.136 1382.11 384.933 1382.86 384.527 1382.84 C383.483 1382.81 382.545 1382.03 381.5 1382.03 C380.571 1382.03 379.763 1382.98 378.842 1382.86 C378.085 1382.77 377.699 1381.83 377.022 1381.48 C376.568 1381.24 376.035 1381.18 375.526 1381.15 C374.512 1381.07 373.482 1381 372.476 1381.15 C372.161 1381.19 372.012 1381.8 371.704 1381.71 C371.035 1381.53 370.698 1380.65 370.026 1380.48 C369.498 1380.34 368.976 1380.95 368.437 1380.86 C366.097 1380.5 363.888 1379.47 361.54 1379.16 C361.121 1379.11 360.876 1379.92 360.463 1379.83 C358.921 1379.5 357.494 1378.74 356.102 1377.99 C355.962 1377.92 355.974 1377.54 356.131 1377.52 C356.592 1377.46 357.038 1377.86 357.5 1377.8 C357.885 1377.75 358.111 1377.2 358.5 1377.2 C358.889 1377.2 359.112 1377.82 359.5 1377.8 C360.213 1377.76 360.786 1377.03 361.5 1377.03 C362.214 1377.03 362.788 1377.85 363.501 1377.8 C364.021 1377.76 364.193 1376.89 364.707 1376.8 C369.212 1376.02 373.762 1375.24 378.336 1375.21 C379.008 1375.2 379.085 1376.4 379.684 1376.71 C379.9 1376.82 379.778 1376.14 380.004 1376.06 C382.104 1375.27 384.246 1374.52 386.46 1374.16 C386.88 1374.1 387.118 1374.88 387.541 1374.84 C391.228 1374.49 394.812 1373.33 398.503 1373.03 C399.214 1372.97 399.788 1373.76 400.5 1373.8 C400.888 1373.82 401.112 1373.18 401.5 1373.2 C402.213 1373.24 402.786 1373.97 403.5 1373.97 C404.214 1373.97 404.787 1373.24 405.5 1373.2 C405.888 1373.18 406.111 1373.8 406.5 1373.8 C406.889 1373.8 407.112 1373.19 407.5 1373.2 C407.89 1373.21 408.096 1373.75 408.474 1373.85 C409.128 1374.03 409.823 1374 410.5 1374 C411.509 1374 412.532 1374.04 413.524 1373.85 C413.837 1373.79 413.999 1373.17 414.296 1373.29 C414.917 1373.53 415.053 1374.56 415.704 1374.71 C416.331 1374.85 416.865 1374.09 417.503 1374.01 C418.825 1373.86 420.178 1373.83 421.496 1374.01 C422.204 1374.11 422.759 1374.81 423.473 1374.84 C424.181 1374.88 424.792 1374.18 425.5 1374.2 C426.214 1374.22 426.786 1374.97 427.5 1374.97 C428.214 1374.97 428.787 1374.24 429.5 1374.2 C429.888 1374.18 430.112 1374.81 430.5 1374.8 C430.89 1374.79 431.096 1374.25 431.474 1374.15 C432.126 1373.98 432.821 1373.95 433.493 1374.01 C438.826 1374.52 444.11 1375.54 449.457 1375.84 C450.188 1375.88 450.767 1374.98 451.497 1375.03 C456.933 1375.41 462.379 1376 467.712 1377.12 C468.486 1377.28 466.289 1377.96 465.498 1377.97 C464.766 1377.98 464.188 1377.12 463.457 1377.16 C456.93 1377.48 450.433 1378.27 443.942 1379.03 C442.784 1379.16 441.704 1379.8 440.538 1379.83 C440.114 1379.85 439.881 1379.12 439.458 1379.16 C435.789 1379.47 432.211 1380.54 428.542 1380.84 C428.133 1380.87 427.922 1380.25 427.526 1380.15 C426.875 1379.97 426.177 1379.94 425.507 1380.01 C421.17 1380.5 416.892 1381.48 412.542 1381.84 C412.135 1381.87 411.935 1381.16 411.527 1381.16 C410.818 1381.15 410.209 1381.8 409.5 1381.8 C409.094 1381.8 408.863 1381.11 408.46 1381.16 C406.107 1381.47 403.895 1382.54 401.54 1382.84 C401.136 1382.89 400.934 1382.16 400.527 1382.16 C399.819 1382.15 399.209 1382.8 398.5 1382.8 C398.109 1382.8 397.912 1382.21 397.526 1382.15 C396.185 1381.94 394.774 1381.69 393.458 1382.02 M353.541 1378.82 C353.541 1378.82 353.541 1378.82 353.541 1378.82 C353.092 1378.71 352.207 1378.96 352.195 1378.5 C352.184 1378.05 353.08 1378.07 353.524 1378.17 M669.541 1376.82 C669.541 1376.82 669.541 1376.82 669.541 1376.82 C669.092 1376.71 668.207 1376.96 668.195 1376.5 C668.183 1376.05 669.079 1376.07 669.524 1376.17 M666.545 1376.82 C666.545 1376.82 666.545 1376.82 666.545 1376.82 C665.856 1376.83 665.161 1376.93 664.479 1376.84 C664.334 1376.82 664.058 1376.55 664.198 1376.5 C664.941 1376.25 665.747 1376.06 666.523 1376.16 M736.508 1372.82 C736.508 1372.82 736.508 1372.82 736.508 1372.82 C736.495 1372.61 736.257 1372.22 736.469 1372.17 C736.913 1372.06 737.775 1372.04 737.802 1372.5 M749.21 1371.53 C749.21 1371.53 749.21 1371.53 749.21 1371.53 C749.639 1371.36 750.035 1371.02 750.496 1371.02 C751.281 1371.01 752.237 1370.95 752.802 1371.5 C753.136 1371.82 751.96 1371.98 751.496 1371.98 M671.54 1371.82 C671.54 1371.82 671.54 1371.82 671.54 1371.82 C671.092 1371.71 670.207 1371.96 670.195 1371.5 C670.184 1371.05 671.08 1371.07 671.524 1371.17 M290.557 1371.83 C290.557 1371.83 290.557 1371.83 290.557 1371.83 C290.215 1371.6 289.929 1371.25 289.532 1371.14 C288.877 1370.97 288.179 1371 287.5 1371 C286.49 1371 285.464 1370.95 284.474 1371.15 C284.091 1371.22 283.891 1371.79 283.5 1371.8 C283.112 1371.81 282.888 1371.2 282.5 1371.2 C282.111 1371.2 281.858 1371.95 281.499 1371.8 C280.036 1371.19 279.059 1369.64 277.555 1369.14 C276.873 1368.92 276.215 1369.87 275.499 1369.8 C274.987 1369.75 273.801 1368.86 274.313 1368.81 C282.99 1367.88 291.717 1367.44 300.437 1367.13 C301.159 1367.11 301.777 1367.78 302.5 1367.8 C302.888 1367.81 303.112 1367.19 303.5 1367.2 C303.888 1367.21 304.102 1367.73 304.473 1367.84 C304.808 1367.95 305.195 1367.96 305.527 1367.84 C305.897 1367.71 306.097 1367.25 306.474 1367.15 C307.124 1366.97 307.822 1366.95 308.493 1367.01 C314.654 1367.61 320.827 1368.16 326.942 1369.11 C327.217 1369.16 326.772 1369.71 326.524 1369.83 C326.21 1369.99 325.805 1369.95 325.473 1369.84 C325.104 1369.72 324.916 1369.16 324.527 1369.16 C323.818 1369.15 323.209 1369.79 322.5 1369.8 C322.112 1369.8 321.888 1369.2 321.5 1369.2 C321.112 1369.2 320.888 1369.8 320.5 1369.8 C320.111 1369.8 319.888 1369.19 319.5 1369.2 C319.112 1369.21 318.916 1369.85 318.527 1369.84 C317.805 1369.84 317.179 1369.05 316.466 1369.17 C315.062 1369.4 313.927 1370.54 312.534 1370.83 C312.139 1370.91 311.903 1370.21 311.5 1370.2 C311.112 1370.19 310.889 1370.8 310.5 1370.8 C310.111 1370.8 309.889 1370.2 309.5 1370.2 C309.112 1370.2 308.888 1370.81 308.5 1370.8 C308.112 1370.79 307.898 1370.27 307.527 1370.16 C307.192 1370.05 306.805 1370.04 306.473 1370.16 C306.105 1370.28 305.895 1370.72 305.527 1370.84 C305.195 1370.96 304.805 1370.96 304.473 1370.84 C304.105 1370.72 303.896 1370.29 303.53 1370.16 C303.185 1370.04 302.798 1370.09 302.437 1370.13 M718.542 1370.82 C718.542 1370.82 718.542 1370.82 718.542 1370.82 C718.091 1370.77 717.6 1370.87 717.188 1370.68 C716.48 1370.35 715.117 1370.07 715.285 1369.31 C715.447 1368.58 716.817 1368.91 717.526 1369.15 C718.114 1369.35 718.48 1369.98 718.803 1370.51 M703.54 1370.82 C703.54 1370.82 703.54 1370.82 703.54 1370.82 C703.092 1370.71 702.207 1370.96 702.195 1370.5 C702.184 1370.05 703.079 1370.07 703.524 1370.17 M784.21 1369.53 C784.21 1369.53 784.21 1369.53 784.21 1369.53 C784.647 1369.41 785.068 1369.18 785.52 1369.17 C785.666 1369.17 785.942 1369.46 785.802 1369.5 M776.21 1369.53 C776.21 1369.53 776.21 1369.53 776.21 1369.53 C776.974 1369.35 777.717 1369 778.5 1369 C779.614 1369 781.014 1368.71 781.802 1369.5 C782.358 1370.05 780.285 1369.99 779.5 1370 M803.58 1368.86 C803.58 1368.86 803.58 1368.86 803.58 1368.86 C802.545 1368.86 801.494 1369.03 800.474 1368.85 C800.088 1368.78 799.918 1368.16 799.527 1368.16 C798.822 1368.16 798.228 1368.77 797.527 1368.84 C797.074 1368.89 796.481 1368.87 796.202 1368.51 C796.022 1368.28 796.431 1367.86 796.716 1367.8 C800.275 1367.02 803.863 1366.19 807.503 1366.03 C808.332 1365.99 810.365 1366.73 809.692 1367.22 M794.545 1368.82 C794.545 1368.82 794.545 1368.82 794.545 1368.82 C793.198 1368.88 791.849 1369.07 790.503 1368.98 C790.04 1368.96 789.198 1368.96 789.198 1368.5 C789.198 1368.04 790.042 1368.07 790.503 1368.02 C791.495 1367.9 792.505 1367.9 793.496 1368.02 C793.959 1368.07 794.437 1368.22 794.806 1368.5 M334.545 1368.82 C334.545 1368.82 334.545 1368.82 334.545 1368.82 C333.762 1368.72 332.224 1369.29 332.198 1368.5 C332.172 1367.72 333.747 1368.06 334.523 1368.16 M272.545 1368.82 C272.545 1368.82 272.545 1368.82 272.545 1368.82 C271.866 1368.88 271.187 1369.05 270.509 1368.98 C270.046 1368.94 268.865 1368.83 269.198 1368.5 C269.757 1367.95 270.713 1368.02 271.496 1368.02 C271.962 1368.02 272.437 1368.22 272.806 1368.5 M813.576 1367.86 C813.576 1367.86 813.576 1367.86 813.576 1367.86 C813.109 1367.73 812.056 1367.95 812.175 1367.48 C812.504 1366.18 813.458 1365.04 814.502 1364.2 C814.803 1363.96 815.112 1364.8 815.5 1364.8 C815.888 1364.8 816.112 1364.19 816.5 1364.2 C816.888 1364.21 817.102 1364.73 817.472 1364.84 C817.808 1364.95 818.192 1364.95 818.527 1364.84 C818.898 1364.73 819.112 1364.21 819.5 1364.2 C819.888 1364.19 820.112 1364.81 820.5 1364.8 C820.891 1364.79 821.088 1364.21 821.474 1364.15 C822.799 1363.94 824.163 1363.87 825.496 1364.01 C826.22 1364.1 826.811 1364.95 827.527 1364.82 C830.269 1364.31 832.74 1362.78 835.461 1362.16 C835.857 1362.08 836.094 1362.79 836.5 1362.8 C836.888 1362.81 837.111 1362.19 837.5 1362.2 C837.888 1362.21 838.101 1362.72 838.47 1362.84 C838.817 1362.95 839.204 1362.93 839.563 1362.87 C842.54 1362.36 845.455 1361.47 848.459 1361.16 C848.883 1361.12 849.116 1361.86 849.542 1361.84 C854.759 1361.58 859.953 1360.96 865.139 1360.34 C872.928 1359.4 880.655 1357.96 888.459 1357.16 C888.863 1357.12 889.085 1357.71 889.47 1357.84 C889.816 1357.96 890.204 1357.93 890.563 1357.87 C893.54 1357.36 896.456 1356.47 899.459 1356.16 C899.881 1356.12 900.118 1356.89 900.539 1356.83 C902.569 1356.55 904.431 1355.46 906.461 1355.16 C906.862 1355.11 907.086 1355.71 907.47 1355.84 C907.816 1355.96 908.202 1355.91 908.563 1355.87 C914.869 1355.02 921.11 1353.6 927.458 1353.16 C928.092 1353.12 928.605 1353.88 928.841 1354.47 C929.014 1354.9 928.975 1355.7 928.529 1355.83 C927.853 1356.03 927.231 1355.16 926.527 1355.16 C925.818 1355.15 925.209 1355.8 924.5 1355.8 C924.095 1355.8 923.862 1355.1 923.463 1355.17 C919.775 1355.81 916.262 1357.3 912.562 1357.87 C911.852 1357.97 911.245 1357.17 910.527 1357.16 C909.818 1357.15 909.209 1357.79 908.5 1357.8 C908.111 1357.8 907.888 1357.2 907.5 1357.2 C907.111 1357.2 906.888 1357.81 906.5 1357.8 C906.094 1357.79 905.863 1357.11 905.46 1357.16 C903.107 1357.47 900.895 1358.54 898.54 1358.84 C898.137 1358.89 897.914 1358.29 897.529 1358.16 C897.184 1358.04 896.792 1358.05 896.438 1358.14 C894.448 1358.61 892.563 1359.54 890.539 1359.83 C890.119 1359.9 889.881 1359.11 889.459 1359.16 C881.119 1360.13 872.882 1361.88 864.541 1362.84 C864.118 1362.89 863.882 1362.12 863.459 1362.16 C854.122 1363.13 844.878 1364.87 835.542 1365.84 C835.119 1365.88 834.882 1365.1 834.461 1365.16 C832.43 1365.45 830.569 1366.54 828.539 1366.83 C828.137 1366.89 827.933 1366.16 827.527 1366.16 C826.818 1366.15 826.209 1366.8 825.5 1366.8 C825.092 1366.8 824.864 1366.12 824.458 1366.16 M811.541 1366.82 C811.541 1366.82 811.541 1366.82 811.541 1366.82 C811.082 1366.72 810.419 1366.93 810.164 1366.53 C809.916 1366.15 810.067 1365.36 810.495 1365.2 C810.9 1365.05 811.264 1365.66 811.499 1366.03 M737.545 1366.82 C737.545 1366.82 737.545 1366.82 737.545 1366.82 C736.762 1366.72 735.224 1367.29 735.198 1366.5 C735.172 1365.72 736.747 1366.06 737.523 1366.16 M816.545 1357.82 C816.545 1357.82 816.545 1357.82 816.545 1357.82 C815.762 1357.72 814.224 1358.29 814.198 1357.5 C814.172 1356.72 815.747 1357.06 816.523 1357.16 M274.541 1356.82 C274.541 1356.82 274.541 1356.82 274.541 1356.82 C274.092 1356.71 273.207 1356.96 273.195 1356.5 C273.184 1356.05 274.08 1356.07 274.524 1356.17 M267.545 1356.82 C267.545 1356.82 267.545 1356.82 267.545 1356.82 C266.763 1356.72 265.224 1357.29 265.198 1356.5 C265.172 1355.72 266.747 1356.06 267.523 1356.16 M934.511 1354.82 C934.511 1354.82 934.511 1354.82 934.511 1354.82 C932.774 1354.3 929.282 1355.07 929.3 1353.26 C929.318 1351.51 932.829 1352.77 934.528 1353.16 C934.985 1353.26 934.838 1354.06 934.833 1354.53 M939.522 1353.79 C939.522 1353.79 939.522 1353.79 939.522 1353.79 C939.183 1353.59 938.897 1353.19 938.504 1353.2 C938.102 1353.2 937.86 1353.93 937.472 1353.82 C936.618 1353.59 934.597 1352.87 935.285 1352.31 C936.385 1351.42 938.192 1351.69 939.528 1352.16 M907.54 1352.82 C907.54 1352.82 907.54 1352.82 907.54 1352.82 C907.092 1352.71 906.207 1352.96 906.195 1352.5 C906.183 1352.05 907.079 1352.07 907.524 1352.17 M179.47 560.829 C179.47 560.829 179.47 560.829 179.47 560.829 C181.063 560.295 182.712 559.905 184.249 559.228 C185.261 558.783 186.072 557.961 187.069 557.484 C189.174 556.476 191.325 555.55 193.531 554.785 C198.875 552.933 204.273 551.234 209.7 549.641 C213.957 548.392 218.319 547.525 222.571 546.262 C225.582 545.369 228.421 543.921 231.472 543.178 C231.878 543.079 232.125 543.893 232.539 543.835 C234.501 543.559 236.406 542.923 238.259 542.221 C238.76 542.032 238.972 541.293 239.499 541.201 C239.894 541.131 240.14 541.923 240.529 541.823 C241.617 541.542 242.38 540.446 243.471 540.177 C243.876 540.077 244.132 540.933 244.537 540.833 C247.687 540.056 250.637 538.612 253.734 537.645 C260.323 535.587 266.928 533.572 273.589 531.76 C280.87 529.778 288.264 528.23 295.55 526.267 C298.893 525.366 302.085 523.92 305.466 523.171 C305.876 523.08 306.124 523.906 306.537 523.833 C308.846 523.427 310.995 522.363 313.271 521.8 C319.974 520.14 326.673 518.43 333.461 517.165 C333.877 517.087 334.126 517.927 334.539 517.835 C340.253 516.568 345.753 514.443 351.466 513.171 C351.874 513.08 352.125 513.915 352.534 513.829 C358.576 512.555 364.42 510.44 370.463 509.167 C370.873 509.081 371.116 509.864 371.534 509.828 C372.51 509.744 373.351 509.07 374.303 508.836 C378.333 507.847 382.359 506.79 386.461 506.165 C386.874 506.102 387.12 506.912 387.527 506.822 C390.25 506.216 392.738 504.766 395.461 504.165 C395.873 504.074 396.123 504.915 396.537 504.832 C401.788 503.791 406.87 502.009 412.1 500.866 C417.941 499.59 423.827 498.506 429.734 497.582 C445.488 495.116 461.259 492.748 477.072 490.696 C490.4 488.966 503.798 487.83 517.142 486.238 C519.263 485.985 521.326 485.277 523.46 485.162 C523.884 485.139 524.119 485.889 524.541 485.84 C529.885 485.211 535.116 483.794 540.46 483.164 C540.863 483.116 541.085 483.714 541.47 483.842 C541.816 483.958 542.208 483.949 542.562 483.864 C544.552 483.387 546.436 482.461 548.461 482.165 C548.865 482.106 549.076 482.762 549.474 482.852 C550.153 483.007 550.873 482.965 551.562 482.871 C559.876 481.734 568.117 480.06 576.459 479.162 C577.186 479.084 577.769 480.037 578.497 479.97 C610.516 477.029 642.446 473.172 674.458 470.16 C674.883 470.12 675.117 470.88 675.542 470.84 C682.21 470.205 688.79 468.796 695.458 468.161 C695.883 468.12 696.117 468.875 696.542 468.84 C708.537 467.867 720.462 466.13 732.457 465.158 C732.883 465.124 733.115 465.865 733.543 465.842 C739.532 465.527 745.468 464.471 751.457 464.158 C751.867 464.137 752.071 464.77 752.473 464.852 C753.46 465.055 754.489 465.07 755.493 464.986 C761.106 464.517 766.73 464.057 772.296 463.196 C772.81 463.116 772.98 462.235 773.499 462.201 C774.215 462.154 774.789 462.923 775.503 462.985 C777.826 463.187 780.174 463.187 782.496 462.985 C783.211 462.923 783.784 462.235 784.5 462.201 C784.887 462.182 785.101 462.724 785.471 462.842 C785.817 462.954 786.211 462.963 786.561 462.863 C788.219 462.389 789.734 461.398 791.439 461.137 C792.152 461.028 792.778 461.784 793.5 461.799 C793.888 461.807 794.112 461.192 794.5 461.201 C794.888 461.209 795.101 461.724 795.47 461.842 C795.817 461.954 796.206 461.94 796.563 461.865 C798.88 461.378 801.111 460.465 803.46 460.163 C803.882 460.109 804.117 460.869 804.542 460.84 C814.883 460.147 825.155 458.536 835.507 458.014 C843.826 457.594 852.17 457.773 860.496 458.015 C861.213 458.036 861.783 458.767 862.5 458.799 C862.89 458.816 863.096 458.246 863.474 458.148 C864.127 457.977 864.829 457.908 865.496 458.016 C866.204 458.131 866.784 458.755 867.5 458.799 C867.888 458.823 868.111 458.201 868.5 458.201 C868.888 458.201 869.112 458.799 869.5 458.799 C869.888 458.799 870.112 458.201 870.5 458.201 C870.888 458.201 871.112 458.799 871.5 458.799 C871.888 458.799 872.112 458.179 872.5 458.201 C873.213 458.241 873.786 458.977 874.5 458.969 C875.232 458.961 875.811 458.12 876.542 458.158 C883.205 458.504 889.812 459.563 896.461 460.108 C904.785 460.791 913.112 461.506 921.457 461.843 C921.883 461.86 922.116 461.118 922.541 461.161 C925.544 461.469 928.43 462.592 931.437 462.866 C932.152 462.932 932.754 462.169 933.473 462.157 C934.181 462.146 934.791 462.799 935.5 462.799 C935.908 462.799 936.135 462.141 936.543 462.157 C954.191 462.825 971.806 464.246 989.457 464.843 C990.192 464.867 990.77 464.07 991.504 464.015 C994.493 463.791 997.506 463.802 1000.5 464.015 C1001.21 464.066 1001.78 464.767 1002.5 464.799 C1002.89 464.816 1003.09 464.223 1003.47 464.147 C1004.46 463.953 1005.5 463.879 1006.5 464.015 C1007.54 464.157 1008.45 464.93 1009.5 464.969 C1010.21 464.996 1010.79 464.241 1011.5 464.201 C1011.89 464.179 1012.11 464.821 1012.5 464.799 C1013.21 464.759 1013.79 464.031 1014.5 464.031 C1015.21 464.031 1015.79 464.769 1016.5 464.799 C1016.89 464.816 1017.08 464.157 1017.47 464.157 C1018.18 464.157 1018.79 464.789 1019.5 464.799 C1019.89 464.805 1020.11 464.201 1020.5 464.201 C1020.89 464.201 1021.11 464.799 1021.5 464.799 C1021.89 464.799 1022.11 464.201 1022.5 464.201 C1022.89 464.201 1023.11 464.807 1023.5 464.799 C1023.91 464.791 1024.14 464.125 1024.54 464.16 C1028.21 464.479 1031.78 465.593 1035.46 465.84 C1036.19 465.889 1036.77 465.01 1037.5 465.031 C1038.55 465.061 1039.45 465.92 1040.5 465.985 C1044.84 466.252 1049.22 465.527 1053.54 466.018 C1054.45 466.121 1054.82 467.487 1055.71 467.711 C1056.33 467.867 1056.86 467.072 1057.5 467.015 C1059.49 466.837 1061.51 466.82 1063.5 467.015 C1064.21 467.085 1064.78 467.767 1065.5 467.799 C1065.89 467.816 1066.09 467.223 1066.47 467.147 C1067.46 466.953 1068.5 466.886 1069.5 467.015 C1070.21 467.107 1070.78 467.728 1071.5 467.798 C1071.81 467.828 1072 467.167 1072.29 467.288 C1072.91 467.544 1073.09 468.456 1073.7 468.712 C1074 468.833 1074.19 468.179 1074.5 468.202 C1074.89 468.231 1075.1 468.726 1075.47 468.843 C1075.81 468.949 1076.19 468.949 1076.53 468.843 C1076.9 468.726 1077.11 468.209 1077.5 468.201 C1077.89 468.192 1078.11 468.81 1078.5 468.799 C1078.89 468.789 1079.1 468.246 1079.47 468.148 C1080.13 467.977 1080.83 467.899 1081.5 468.016 C1082.2 468.14 1082.78 468.684 1083.47 468.852 C1084.13 469.011 1084.83 469.097 1085.5 468.984 C1086.22 468.861 1086.81 468.104 1087.54 468.161 C1090.56 468.396 1093.45 469.537 1096.46 469.839 C1096.86 469.879 1097.09 469.284 1097.47 469.157 C1097.81 469.047 1098.19 469.065 1098.53 469.157 C1099.22 469.345 1099.8 469.886 1100.5 469.985 C1101.5 470.124 1102.54 470.047 1103.53 469.853 C1103.91 469.777 1104.11 469.211 1104.5 469.201 C1104.89 469.19 1105.11 469.81 1105.5 469.799 C1105.89 469.789 1106.1 469.247 1106.47 469.147 C1107.13 468.976 1107.82 468.958 1108.49 469.015 C1118.48 469.865 1128.43 471.198 1138.44 471.867 C1139.18 471.917 1139.8 471.105 1140.54 471.159 C1144.86 471.475 1149.13 472.251 1153.4 472.962 C1154.79 473.194 1156.1 473.811 1157.51 473.986 C1158.51 474.111 1159.54 474.055 1160.53 473.852 C1160.93 473.77 1161.13 473.126 1161.54 473.159 C1169.54 473.796 1177.46 475.186 1185.46 475.84 C1185.86 475.873 1186.09 475.183 1186.5 475.201 C1187.21 475.231 1187.79 475.969 1188.5 475.969 C1189.21 475.969 1189.79 475.241 1190.5 475.201 C1190.89 475.179 1191.11 475.806 1191.5 475.799 C1191.9 475.793 1192.14 475.095 1192.54 475.167 C1194.24 475.473 1195.76 476.462 1197.44 476.867 C1198.12 477.03 1198.85 477.006 1199.53 476.852 C1199.92 476.761 1200.13 476.116 1200.54 476.162 C1203.22 476.466 1205.76 477.586 1208.44 477.866 C1209.16 477.941 1209.78 477.206 1210.5 477.201 C1210.89 477.198 1211.1 477.726 1211.47 477.843 C1211.81 477.949 1212.19 477.953 1212.53 477.843 C1212.91 477.715 1213.14 477.121 1213.54 477.16 C1220.2 477.805 1226.77 479.262 1233.44 479.867 C1234.17 479.934 1234.8 479.134 1235.54 479.157 C1245.19 479.461 1254.81 480.515 1264.46 480.843 C1264.88 480.857 1265.12 480.073 1265.53 480.177 C1266.62 480.453 1267.37 481.536 1268.44 481.856 C1268.95 482.006 1269.52 481.753 1269.98 481.502 C1270.57 481.185 1270.86 480.371 1271.5 480.201 C1271.88 480.101 1272.1 480.727 1272.47 480.843 C1272.81 480.947 1273.36 481.139 1273.52 480.83 C1273.74 480.429 1273.07 479.936 1273.2 479.499 C1273.36 478.978 1273.75 478.283 1274.3 478.287 C1274.99 478.294 1275.27 479.55 1275.96 479.524 C1276.65 479.497 1276.84 478.139 1277.54 478.162 C1280.24 478.251 1282.78 479.54 1285.46 479.838 C1285.88 479.885 1286.12 479.102 1286.54 479.163 C1291.47 479.876 1296.26 481.367 1301.18 482.112 C1306.58 482.928 1312.01 483.513 1317.46 483.841 C1317.88 483.867 1318.12 483.124 1318.54 483.16 C1322.2 483.474 1325.77 484.606 1329.44 484.867 C1330.49 484.942 1331.47 484.161 1332.53 484.157 C1332.92 484.156 1333.09 484.774 1333.47 484.852 C1334.35 485.031 1335.32 485.223 1336.15 484.898 C1336.91 484.6 1337.13 483.518 1337.85 483.135 C1338.15 482.978 1338.72 483.17 1338.8 483.497 C1338.89 483.875 1338.29 484.124 1338.2 484.504 C1338.17 484.639 1338.36 484.827 1338.5 484.798 C1339.2 484.649 1339.79 484.107 1340.5 484.015 C1341.5 483.886 1342.54 483.953 1343.53 484.147 C1343.91 484.223 1344.11 484.816 1344.5 484.799 C1345.22 484.767 1345.79 484.068 1346.5 484.015 C1348.85 483.842 1351.23 483.849 1353.56 484.129 C1356.75 484.511 1359.95 485.032 1363.01 485.992 C1363.98 486.298 1364.42 487.837 1365.44 487.855 C1367.51 487.893 1369.46 486.848 1371.41 486.145 C1371.96 485.945 1372.65 485.708 1372.88 485.168 C1373.23 484.352 1373.1 483.385 1372.98 482.504 C1372.85 481.465 1371.98 480.504 1372.16 479.473 C1372.31 478.625 1373.55 478.333 1373.85 477.526 C1374.2 476.58 1374.02 475.513 1373.99 474.506 C1373.97 474.057 1373.88 473.596 1373.68 473.192 C1372.93 471.646 1372.28 470.004 1371.17 468.693 C1370.4 467.796 1369.3 467.214 1368.22 466.749 C1365.74 465.683 1363.23 464.548 1360.56 464.132 C1357.56 463.664 1354.46 463.742 1351.44 464.134 C1350.03 464.318 1348.92 465.53 1347.53 465.829 C1347.14 465.914 1346.9 465.206 1346.5 465.201 C1346.11 465.195 1345.89 465.799 1345.5 465.799 C1345.11 465.799 1344.89 465.177 1344.5 465.201 C1343.78 465.245 1343.21 465.945 1342.5 465.985 C1338.49 466.208 1334.44 466.458 1330.46 465.982 C1329.55 465.874 1329.14 464.63 1328.29 464.289 C1328 464.173 1327.81 464.821 1327.5 464.798 C1327.11 464.769 1326.9 464.274 1326.53 464.157 C1326.19 464.051 1325.81 464.047 1325.47 464.157 C1325.09 464.284 1324.86 464.883 1324.46 464.837 C1322.08 464.564 1319.73 463.962 1317.44 463.24 C1314.75 462.389 1312.26 460.969 1309.56 460.133 C1308.9 459.927 1308.15 459.99 1307.47 460.148 C1307.09 460.237 1306.9 460.715 1306.53 460.842 C1306.19 460.956 1305.77 461.017 1305.47 460.834 C1305.16 460.642 1305.2 460.115 1304.93 459.867 C1304.2 459.212 1303.46 458.469 1302.53 458.178 C1302.15 458.059 1301.9 458.805 1301.5 458.799 C1301.11 458.793 1300.91 458.223 1300.53 458.148 C1299.54 457.953 1298.5 457.888 1297.5 458.015 C1296.58 458.132 1295.77 459.028 1294.85 458.867 C1293.9 458.698 1293.43 457.43 1292.51 457.135 C1292.12 457.013 1291.9 457.786 1291.5 457.799 C1291.11 457.812 1290.89 457.201 1290.5 457.201 C1290.11 457.201 1289.87 457.922 1289.5 457.799 C1288.69 457.53 1288.31 456.471 1287.5 456.201 C1287.13 456.078 1286.89 456.808 1286.5 456.799 C1286.11 456.791 1285.9 456.274 1285.53 456.157 C1285.19 456.051 1284.81 456.048 1284.47 456.157 C1284.09 456.282 1283.86 456.91 1283.47 456.829 C1278 455.7 1272.72 453.744 1267.26 452.605 C1261.39 451.383 1255.44 450.54 1249.5 449.754 C1239.2 448.391 1228.89 447.1 1218.54 446.16 C1218.12 446.121 1217.88 446.864 1217.46 446.842 C1198.47 445.859 1179.53 444.141 1160.54 443.158 C1160.12 443.136 1159.88 443.892 1159.46 443.838 C1148.35 442.424 1137.34 440.262 1126.24 438.793 C1119.44 437.893 1112.61 437.287 1105.78 436.734 C1099.72 436.244 1093.65 435.933 1087.58 435.663 C1066.9 434.741 1046.23 433.753 1025.54 433.156 C1025.13 433.145 1024.94 433.843 1024.53 433.843 C1023.48 433.843 1022.52 433.168 1021.47 433.157 C1021.08 433.153 1020.89 433.791 1020.5 433.799 C1020.11 433.808 1019.89 433.192 1019.5 433.201 C1019.09 433.209 1018.86 433.863 1018.46 433.842 C1011.8 433.511 1005.2 432.476 998.543 432.158 C998.135 432.138 997.916 432.712 997.53 432.842 C997.184 432.959 996.799 432.908 996.437 432.868 C991.799 432.347 987.197 431.479 982.542 431.159 C982.135 431.131 981.935 431.837 981.527 431.843 C980.819 431.853 980.209 431.201 979.5 431.201 C979.111 431.201 978.916 431.843 978.527 431.843 C977.818 431.843 977.209 431.211 976.5 431.201 C976.112 431.195 975.888 431.799 975.5 431.799 C975.111 431.799 974.888 431.193 974.5 431.201 C974.092 431.209 973.864 431.875 973.458 431.84 C969.109 431.472 964.836 430.447 960.493 430.014 C959.159 429.881 957.798 429.937 956.474 430.148 C955.77 430.26 955.213 430.968 954.5 430.969 C953.455 430.971 952.517 430.192 951.472 430.157 C951.067 430.143 950.863 430.893 950.461 430.835 C948.431 430.545 946.578 429.383 944.539 429.165 C943.809 429.087 943.219 429.862 942.496 429.984 C941.83 430.097 941.127 430.023 940.474 429.852 C940.096 429.754 939.891 429.203 939.5 429.201 C939.111 429.199 938.916 429.849 938.527 429.843 C937.822 429.833 937.232 429.165 936.527 429.157 C935.818 429.15 935.209 429.799 934.5 429.799 C934.111 429.799 933.916 429.15 933.527 429.157 C932.821 429.17 932.226 429.756 931.526 429.852 C930.197 430.035 928.836 430.139 927.503 429.985 C926.794 429.903 926.24 429.19 925.527 429.157 C924.819 429.125 924.208 429.821 923.5 429.799 C922.786 429.777 922.214 429.031 921.5 429.031 C920.786 429.031 920.214 429.799 919.5 429.799 C918.786 429.799 918.214 429.023 917.5 429.031 C916.789 429.039 916.238 429.82 915.527 429.843 C914.823 429.865 914.232 429.165 913.527 429.157 C912.818 429.15 912.209 429.789 911.5 429.799 C911.112 429.805 910.888 429.201 910.5 429.201 C910.111 429.201 909.868 429.922 909.499 429.799 C908.69 429.53 908.313 428.46 907.5 428.201 C907.128 428.082 906.908 428.77 906.526 428.852 C905.857 428.996 905.142 428.996 904.474 428.852 C904.092 428.77 903.89 428.206 903.5 428.201 C903.099 428.195 902.859 428.923 902.471 428.823 C901.383 428.542 900.619 427.448 899.529 427.177 C899.14 427.08 898.928 427.845 898.527 427.843 C897.484 427.838 896.516 427.168 895.472 427.157 C895.084 427.153 894.888 427.791 894.5 427.799 C894.112 427.808 893.888 427.19 893.5 427.201 C893.109 427.211 892.904 427.754 892.526 427.853 C891.872 428.023 891.169 428.101 890.503 427.984 C889.799 427.86 889.232 427.262 888.526 427.148 C887.202 426.934 885.837 426.871 884.503 427.015 C883.79 427.092 883.216 427.755 882.5 427.799 C882.112 427.823 881.888 427.193 881.5 427.201 C881.092 427.209 880.864 427.869 880.458 427.841 C875.797 427.517 871.203 426.483 866.542 426.159 C866.135 426.131 865.907 426.818 865.5 426.799 C864.784 426.766 864.213 426.011 863.496 426.016 C862.127 426.026 860.842 426.843 859.472 426.843 C858.758 426.842 858.21 426.045 857.496 426.015 C851.504 425.767 845.496 425.78 839.503 426.015 C838.787 426.043 838.217 426.799 837.5 426.799 C836.783 426.799 836.211 426.078 835.496 426.015 C833.173 425.809 830.832 425.967 828.5 426.001 C827.823 426.011 827.128 425.973 826.474 426.147 C826.096 426.248 825.891 426.789 825.5 426.799 C825.112 426.81 824.888 426.19 824.5 426.201 C824.11 426.211 823.908 426.77 823.526 426.852 C822.857 426.996 822.143 426.996 821.474 426.852 C821.092 426.77 820.891 426.201 820.5 426.201 C820.109 426.201 819.904 426.752 819.526 426.852 C818.872 427.027 818.177 426.999 817.5 426.999 C816.49 426.999 815.462 427.061 814.474 426.852 C814.091 426.771 813.919 426.159 813.527 426.157 C812.822 426.155 812.232 426.835 811.527 426.843 C810.818 426.85 810.209 426.199 809.5 426.201 C809.109 426.202 808.904 426.752 808.526 426.852 C807.872 427.027 807.177 426.999 806.5 426.999 C805.49 426.999 804.462 427.061 803.474 426.852 C803.091 426.771 802.918 426.164 802.527 426.157 C801.818 426.145 801.209 426.789 800.5 426.799 C800.112 426.805 799.888 426.19 799.5 426.201 C799.109 426.211 798.904 426.752 798.526 426.853 C797.872 427.027 797.177 426.999 796.5 426.999 C795.49 426.999 794.464 427.05 793.474 426.853 C793.091 426.776 792.891 426.203 792.5 426.201 C792.111 426.199 791.916 426.843 791.527 426.843 C790.818 426.843 790.209 426.201 789.5 426.201 C789.111 426.201 788.898 426.726 788.527 426.843 C788.192 426.949 787.806 426.953 787.472 426.843 C787.086 426.716 786.864 426.12 786.459 426.161 C783.102 426.506 779.86 427.689 776.497 427.97 C775.789 428.029 775.237 427.188 774.527 427.157 C773.819 427.127 773.209 427.789 772.5 427.799 C772.111 427.805 771.888 427.201 771.5 427.201 C771.111 427.201 770.888 427.81 770.5 427.799 C770.109 427.789 769.907 427.231 769.526 427.148 C768.846 427 768.119 426.988 767.438 427.132 C765.436 427.555 763.562 428.523 761.539 428.835 C761.138 428.897 760.906 428.208 760.5 428.201 C760.112 428.194 759.888 428.821 759.5 428.799 C758.787 428.759 758.214 428.031 757.5 428.031 C756.786 428.031 756.214 428.799 755.5 428.799 C754.786 428.799 754.214 428.023 753.5 428.031 C752.789 428.039 752.238 428.825 751.527 428.843 C750.484 428.869 749.498 427.963 748.473 428.158 C747.632 428.318 747.336 429.616 746.5 429.799 C745.803 429.953 745.214 429.031 744.5 429.031 C743.786 429.031 743.213 429.759 742.5 429.799 C742.112 429.821 741.888 429.201 741.5 429.201 C741.112 429.201 740.888 429.799 740.5 429.799 C740.112 429.799 739.888 429.192 739.5 429.201 C739.112 429.209 738.916 429.849 738.527 429.843 C737.823 429.833 737.232 429.165 736.527 429.157 C735.818 429.15 735.209 429.789 734.5 429.799 C734.112 429.805 733.888 429.201 733.5 429.201 C733.111 429.201 732.888 429.799 732.5 429.799 C732.111 429.799 731.888 429.201 731.5 429.201 C731.112 429.201 730.888 429.799 730.5 429.799 C730.111 429.799 729.868 429.078 729.5 429.201 C728.69 429.471 728.31 430.529 727.5 430.799 C727.132 430.922 726.889 430.201 726.5 430.201 C726.112 430.201 725.888 430.799 725.5 430.799 C725.112 430.799 724.888 430.19 724.5 430.201 C724.109 430.211 723.904 430.754 723.526 430.852 C722.872 431.023 722.17 431.098 721.504 430.984 C720.778 430.86 720.192 430.13 719.457 430.157 C711.121 430.471 702.836 431.7 694.5 431.999 C685.84 432.31 677.166 432.232 668.503 431.985 C667.787 431.964 667.216 431.233 666.5 431.201 C666.11 431.184 665.904 431.754 665.526 431.853 C664.872 432.023 664.17 432.092 663.504 431.984 C662.796 431.869 662.202 431.058 661.5 431.201 C660.664 431.371 660.31 432.53 659.5 432.799 C659.132 432.922 658.889 432.201 658.5 432.201 C658.112 432.201 657.888 432.799 657.5 432.799 C657.112 432.799 656.888 432.177 656.5 432.201 C655.784 432.245 655.213 432.945 654.496 432.985 C650.505 433.208 646.495 433.208 642.504 432.985 C641.787 432.945 641.216 432.235 640.5 432.201 C640.112 432.182 639.915 432.831 639.527 432.843 C638.894 432.863 638.318 432.115 637.709 432.289 C636.828 432.541 636.432 433.76 635.543 433.982 C634.227 434.312 632.813 434.072 631.474 433.852 C631.088 433.789 630.898 433.288 630.529 433.158 C630.186 433.037 629.797 433.078 629.437 433.133 C626.128 433.64 622.873 434.514 619.541 434.839 C619.136 434.879 618.907 434.209 618.5 434.201 C618.112 434.193 617.888 434.808 617.5 434.799 C617.112 434.791 616.916 434.157 616.527 434.157 C615.818 434.157 615.209 434.799 614.5 434.799 C614.092 434.8 613.865 434.135 613.458 434.159 C602.469 434.82 591.532 436.195 580.543 436.842 C580.135 436.866 579.936 436.163 579.527 436.157 C578.818 436.147 578.209 436.799 577.5 436.799 C577.092 436.8 576.863 436.117 576.458 436.159 C570.129 436.815 563.896 438.249 557.563 438.866 C556.844 438.936 556.222 438.216 555.5 438.201 C555.112 438.192 554.888 438.808 554.5 438.799 C554.111 438.791 553.916 438.157 553.527 438.157 C552.818 438.157 552.209 438.799 551.5 438.799 C551.112 438.799 550.899 438.277 550.529 438.158 C550.183 438.046 549.795 438.067 549.437 438.134 C546.79 438.629 544.216 439.533 541.54 439.838 C541.117 439.886 540.882 439.127 540.458 439.159 C531.797 439.801 523.203 441.197 514.542 441.84 C514.118 441.872 513.88 441.094 513.461 441.165 C509.771 441.788 506.26 443.283 502.562 443.864 C501.849 443.976 501.222 443.206 500.5 443.201 C500.111 443.198 499.898 443.726 499.527 443.843 C499.192 443.949 498.807 443.952 498.473 443.843 C498.088 443.717 497.862 443.101 497.463 443.167 C495.753 443.452 494.27 444.832 492.536 444.833 C491.652 444.833 491.351 443.171 490.466 443.171 C489.044 443.17 487.927 444.54 486.534 444.829 C486.139 444.911 485.903 444.198 485.5 444.201 C485.111 444.203 484.898 444.726 484.527 444.843 C484.192 444.949 483.805 444.957 483.473 444.843 C483.105 444.717 482.896 444.285 482.529 444.158 C482.186 444.039 481.785 444.024 481.441 444.139 C480.095 444.59 478.924 445.544 477.534 445.829 C477.137 445.911 476.922 445.236 476.526 445.148 C475.858 444.999 475.143 445.004 474.474 445.148 C474.092 445.23 473.89 445.796 473.5 445.799 C473.094 445.803 472.866 445.143 472.461 445.165 C471.123 445.241 469.872 445.881 468.546 446.079 C463.893 446.774 459.235 447.504 454.542 447.841 C454.117 447.871 453.883 447.116 453.459 447.161 C445.196 448.037 436.979 449.316 428.765 450.573 C424.323 451.253 419.953 452.387 415.497 452.97 C414.984 453.037 414.464 452.765 414.018 452.502 C413.443 452.164 413.148 451.055 412.496 451.201 C411.964 451.321 413.022 452.615 412.524 452.838 C411.299 453.385 409.838 453.114 408.503 452.985 C407.455 452.883 406.507 452.116 405.454 452.154 C405.101 452.167 406.268 452.876 405.977 453.076 C404.664 453.975 403.1 454.527 401.538 454.834 C401.122 454.916 400.881 454.117 400.459 454.161 C397.1 454.511 393.852 455.634 390.493 455.986 C388.498 456.195 386.417 456.345 384.476 455.838 C384.031 455.721 384.94 454.934 384.798 454.497 C384.699 454.194 384.188 453.955 383.918 454.124 C383.22 454.561 383.17 456.012 382.347 456.031 C381.48 456.051 381.341 454.404 380.498 454.202 C379.969 454.075 379.239 454.755 379.288 455.297 C379.346 455.958 380.654 456.02 380.718 456.68 C380.76 457.111 379.849 457.144 379.451 456.971 C378.549 456.581 378.088 455.413 377.145 455.133 C376.578 454.965 376.091 455.816 375.5 455.799 C374.786 455.779 374.211 455.097 373.5 455.032 C373.042 454.99 372.144 455.038 372.199 455.495 C372.303 456.345 373.379 456.759 373.8 457.505 C373.871 457.631 373.667 457.823 373.524 457.838 C372.513 457.943 371.481 457.998 370.476 457.852 C370.153 457.805 370.004 457.229 369.682 457.281 C369.236 457.354 369.086 458.233 368.642 458.151 C368.043 458.039 367.943 457.02 367.358 456.849 C366.811 456.689 366.193 456.995 365.706 457.292 C365.136 457.638 364.964 458.737 364.297 458.712 C363.5 458.683 363.264 457.155 362.466 457.171 C361.044 457.2 359.927 458.54 358.534 458.829 C358.139 458.911 357.903 458.206 357.5 458.201 C357.112 458.195 356.888 458.808 356.5 458.799 C356.112 458.791 355.898 458.274 355.527 458.157 C355.192 458.051 354.779 457.986 354.473 458.158 C353.725 458.578 353.359 459.63 352.527 459.842 C351.829 460.02 351.177 459.032 350.471 459.177 C349.371 459.403 348.617 460.498 347.554 460.862 C346.695 461.157 345.674 460.745 344.841 461.106 C344.158 461.401 343.969 462.405 343.291 462.711 C343.001 462.841 342.834 462.211 342.524 462.148 C341.843 462.01 341.115 461.971 340.439 462.133 C336.836 462.993 333.348 464.288 329.758 465.197 C323.469 466.79 317.098 468.042 310.81 469.636 C309.684 469.921 308.688 470.688 307.534 470.829 C307.133 470.878 306.931 470.161 306.527 470.157 C305.818 470.15 305.209 470.797 304.5 470.799 C304.094 470.8 303.866 470.143 303.461 470.165 C302.123 470.241 300.872 470.881 299.546 471.079 C294.893 471.774 290.235 472.504 285.542 472.841 C285.117 472.871 284.882 472.113 284.459 472.16 C275.438 473.167 266.511 474.911 257.497 475.97 C256.983 476.03 256.463 475.765 256.018 475.502 C255.443 475.163 255.148 474.345 254.496 474.201 C254.162 474.127 255.022 475.128 254.69 475.208 C249.71 476.42 244.624 477.177 239.542 477.838 C239.211 477.881 239.016 477.167 238.705 477.288 C238.082 477.53 237.946 478.561 237.296 478.712 C236.672 478.857 236.14 478.016 235.5 478.031 C234.786 478.047 234.197 478.952 233.499 478.799 C232.665 478.616 232.281 477.565 231.529 477.159 C231.213 476.988 230.41 476.795 230.452 477.152 C230.531 477.813 231.693 478.037 231.712 478.703 C231.728 479.25 231.036 479.634 230.529 479.841 C230.126 480.006 229.641 479.859 229.229 479.717 C227.969 479.285 226.836 478.517 225.56 478.135 C225.011 477.971 224.376 477.902 223.841 478.107 C223.122 478.383 222.671 479.124 222 479.499 C221.898 479.556 221.803 479.218 221.718 479.296 C220.897 480.05 220.58 481.531 219.498 481.798 C218.739 481.985 218.482 480.35 217.703 480.287 C217.011 480.232 216.696 481.34 216.026 481.52 C215.513 481.658 214.972 480.977 214.473 481.158 C213.669 481.449 213.295 482.478 212.502 482.798 C212.205 482.918 212.001 482.205 211.691 482.283 C211.171 482.413 210.962 483.14 210.453 483.31 C209.835 483.517 209.135 483.488 208.497 483.351 C208.119 483.271 207.927 482.626 207.547 482.69 C207.018 482.778 206.832 483.598 206.31 483.717 C205.996 483.788 205.839 483.228 205.526 483.15 C204.984 483.015 204.366 482.884 203.852 483.103 C202.953 483.487 202.437 484.561 201.509 484.865 C201.126 484.99 200.903 484.205 200.5 484.201 C200.112 484.196 199.898 484.726 199.527 484.843 C199.192 484.949 198.808 484.949 198.473 484.843 C198.102 484.726 197.869 484.082 197.499 484.201 C196.687 484.462 196.313 485.54 195.501 485.799 C195.128 485.918 194.908 485.231 194.526 485.148 C193.848 485.001 193.101 484.912 192.446 485.138 C191.438 485.486 190.391 485.982 189.718 486.809 C188.885 487.834 188.563 489.191 188.135 490.44 C187.96 490.951 188.314 491.673 187.924 492.046 C187.003 492.928 185.801 493.579 184.558 493.865 C182.916 494.243 181.181 494.143 179.503 493.985 C178.79 493.918 178.216 493.235 177.5 493.201 C177.112 493.182 176.898 493.726 176.527 493.843 C176.192 493.949 175.805 493.957 175.473 493.843 C175.105 493.716 174.916 493.163 174.527 493.157 C173.818 493.147 173.209 493.799 172.5 493.799 C172.112 493.799 171.899 493.276 171.529 493.158 C171.183 493.046 170.789 493.039 170.439 493.137 C168.846 493.581 167.252 494.068 165.754 494.768 C165.308 494.977 164.976 495.401 164.711 495.816 C163.763 497.306 162.891 498.849 162.138 500.446 C161.987 500.765 161.935 501.159 162.029 501.5 C162.48 503.114 162.757 504.875 163.75 506.225 C164.647 507.444 165.967 508.542 167.446 508.862 C170.395 509.501 173.487 509.196 176.496 508.985 C177.547 508.911 178.458 508.145 179.503 508.015 C181.171 507.807 182.913 508.39 184.543 507.982 C185.438 507.759 185.756 506.252 186.678 506.223 C188.284 506.171 189.974 506.785 191.245 507.768 C192.805 508.974 193.764 510.818 194.798 512.497 C194.904 512.67 194.659 512.936 194.47 513.009 C184.949 516.68 175.123 519.587 165.779 523.688 C162.858 524.97 160.352 527.074 157.867 529.074 C157.104 529.687 156.409 530.506 156.138 531.446 C155.764 532.744 155.869 534.154 156.015 535.496 C156.093 536.209 156.765 536.784 156.799 537.5 C156.818 537.888 156.274 538.102 156.157 538.473 C156.051 538.808 155.954 539.241 156.158 539.527 C156.956 540.649 157.88 541.736 159.025 542.5 C159.382 542.738 159.904 542.11 160.295 542.288 C161.796 542.971 162.94 544.314 164.452 544.971 C164.855 545.146 165.468 545.003 165.729 544.65 C165.896 544.425 164.837 544.136 165.111 544.081 C174.326 542.218 183.667 541.023 192.881 539.161 C196.785 538.372 200.529 536.891 204.439 536.132 C205.51 535.925 208.484 535.519 207.706 536.283 C206.18 537.784 203.702 537.81 201.778 538.749 C201.283 538.991 201.043 539.701 200.501 539.799 C200.119 539.869 199.899 539.276 199.529 539.157 C199.184 539.047 198.787 539.031 198.441 539.139 C193.77 540.594 189.258 542.557 184.534 543.829 C184.13 543.938 183.876 543.089 183.466 543.171 C182.072 543.45 180.92 544.503 179.536 544.829 C179.216 544.904 179.017 544.171 178.71 544.289 C177.855 544.619 177.374 545.592 176.546 545.983 C176.035 546.224 175.249 545.702 174.856 546.108 C173.657 547.344 172.358 548.801 172.155 550.511 C171.958 552.167 173.095 553.72 173.768 555.246 C173.987 555.741 174.698 555.968 174.799 556.499 C174.873 556.882 173.998 557.172 174.201 557.504 C174.393 557.818 174.981 557.084 175.284 557.292 C175.983 557.771 176.186 558.76 176.833 559.307 M211.21 535.527 C211.21 535.527 211.21 535.527 211.21 535.527 C211.638 535.362 212.035 535.039 212.493 535.034 C212.956 535.029 213.798 535.037 213.802 535.5 C213.806 535.961 212.962 535.963 212.501 535.967 M216.545 534.824 C216.545 534.824 216.545 534.824 216.545 534.824 C215.763 534.716 214.224 535.289 214.198 534.5 C214.172 533.717 215.747 534.056 216.523 534.163 M223.541 532.817 C223.541 532.817 223.541 532.817 223.541 532.817 C223.092 532.712 222.207 532.963 222.195 532.503 C222.184 532.047 223.08 532.067 223.524 532.171 M216.541 521.817 C216.541 521.817 216.541 521.817 216.541 521.817 C216.092 521.712 215.207 521.964 215.195 521.503 C215.184 521.047 216.08 521.067 216.524 521.171 M224.541 519.817 C224.541 519.817 224.541 519.817 224.541 519.817 C224.092 519.712 223.207 519.963 223.195 519.503 C223.184 519.047 224.08 519.067 224.524 519.171 M230.545 518.824 C230.545 518.824 230.545 518.824 230.545 518.824 C229.762 518.716 228.224 519.289 228.198 518.5 C228.172 517.717 229.747 518.056 230.523 518.163 M217.533 506.83 C217.533 506.83 217.533 506.83 217.533 506.83 C215.327 506.289 213.039 506.016 210.917 505.207 C210.498 505.047 211.755 504.868 212.197 504.795 C217.723 503.878 223.287 503.192 228.807 502.24 C230.372 501.97 231.871 501.384 233.439 501.132 C234.125 501.021 234.837 501.05 235.524 501.159 C235.689 501.185 236.012 501.428 235.872 501.519 C234.667 502.304 233.355 502.931 232.012 503.446 C229.574 504.382 227.13 505.399 224.559 505.86 C223.852 505.987 223.233 505.272 222.526 505.148 C221.843 505.028 221.103 504.917 220.446 505.138 M238.575 501.851 C238.575 501.851 238.575 501.851 238.575 501.851 C238.091 501.728 237.561 501.722 237.123 501.481 C236.993 501.41 236.954 501.095 237.091 501.036 C238.831 500.282 240.63 499.646 242.465 499.166 C242.639 499.121 243.017 499.422 242.869 499.524 M248.545 499.824 C248.545 499.824 248.545 499.824 248.545 499.824 C247.531 499.877 246.516 500.059 245.503 499.984 C245.04 499.949 243.78 499.703 244.198 499.5 C245.197 499.015 246.385 499.015 247.496 499.016 C247.962 499.017 248.437 499.22 248.806 499.504 M251.545 498.824 C251.545 498.824 251.545 498.824 251.545 498.824 C250.763 498.716 249.224 499.289 249.198 498.5 C249.172 497.717 250.747 498.056 251.523 498.163 M267.545 495.824 C267.545 495.824 267.545 495.824 267.545 495.824 C266.763 495.716 265.224 496.289 265.198 495.5 C265.172 494.717 266.747 495.056 267.523 495.163 M270.541 494.817 C270.541 494.817 270.541 494.817 270.541 494.817 C270.092 494.712 269.207 494.964 269.195 494.503 C269.184 494.047 270.08 494.067 270.524 494.171 M273.541 493.817 C273.541 493.817 273.541 493.817 273.541 493.817 C273.092 493.712 272.207 493.964 272.195 493.503 C272.184 493.047 273.08 493.067 273.524 493.171 M478.541 488.817 C478.541 488.817 478.541 488.817 478.541 488.817 C478.092 488.712 477.207 488.964 477.195 488.503 C477.184 488.047 478.079 488.067 478.524 488.171 M567.541 478.817 C567.541 478.817 567.541 478.817 567.541 478.817 C567.092 478.712 566.207 478.964 566.195 478.503 C566.184 478.047 567.079 478.067 567.524 478.171 M570.567 474.842 C570.567 474.842 570.567 474.842 570.567 474.842 C569.87 474.843 569.081 475.189 568.476 474.844 C568.07 474.613 568.072 473.933 568.171 473.477 C568.216 473.266 568.615 473.226 568.802 473.333 M564.54 474.817 C564.54 474.817 564.54 474.817 564.54 474.817 C564.092 474.712 563.207 474.963 563.195 474.503 C563.184 474.047 564.079 474.067 564.524 474.171 M582.541 473.817 C582.541 473.817 582.541 473.817 582.541 473.817 C582.092 473.712 581.207 473.964 581.195 473.503 C581.183 473.047 582.079 473.067 582.524 473.171 M579.567 473.843 C579.567 473.843 579.567 473.843 579.567 473.843 C578.212 473.89 576.856 474.069 575.504 473.984 C575.041 473.955 574.2 473.968 574.199 473.505 C574.198 472.891 574.912 472.381 575.499 472.201 C575.871 472.087 576.111 472.804 576.5 472.799 C576.9 472.795 577.149 472.049 577.528 472.178 M588.545 472.824 C588.545 472.824 588.545 472.824 588.545 472.824 C587.531 472.877 586.516 473.059 585.503 472.984 C585.04 472.949 583.78 472.703 584.198 472.5 C585.197 472.015 586.385 472.015 587.496 472.016 C587.962 472.017 588.437 472.22 588.806 472.504 M596.541 471.817 C596.541 471.817 596.541 471.817 596.541 471.817 C596.092 471.712 595.207 471.964 595.195 471.503 C595.183 471.047 596.079 471.067 596.524 471.171 M607.545 470.824 C607.545 470.824 607.545 470.824 607.545 470.824 C606.866 470.877 606.187 471.048 605.509 470.982 C605.046 470.937 603.864 470.826 604.197 470.5 C604.757 469.953 605.713 470.016 606.496 470.017 C606.962 470.018 607.436 470.22 607.806 470.504 M737.545 461.824 C737.545 461.824 737.545 461.824 737.545 461.824 C736.762 461.716 735.224 462.289 735.198 461.5 C735.172 460.717 736.747 461.056 737.523 461.163 M350.541 461.817 C350.541 461.817 350.541 461.817 350.541 461.817 C350.092 461.712 349.207 461.963 349.195 461.503 C349.184 461.047 350.079 461.067 350.524 461.171 M779.545 460.824 C779.545 460.824 779.545 460.824 779.545 460.824 C778.762 460.716 777.224 461.289 777.198 460.5 C777.172 459.717 778.747 460.056 779.523 460.163 M363.541 459.817 C363.541 459.817 363.541 459.817 363.541 459.817 C363.092 459.712 362.207 459.963 362.195 459.503 C362.184 459.047 363.079 459.067 363.524 459.171 M398.789 453.527 C398.789 453.527 398.789 453.527 398.789 453.527 C398.362 453.362 397.965 453.039 397.507 453.034 C397.044 453.029 396.202 453.037 396.198 453.5 C396.194 453.961 397.038 453.963 397.499 453.967 M403.79 452.527 C403.79 452.527 403.79 452.527 403.79 452.527 C403.353 452.407 402.932 452.176 402.48 452.168 C402.334 452.166 402.075 452.423 402.198 452.5 C402.585 452.745 403.073 452.825 403.53 452.832 "/></g><g><path fill="none" stroke="#000000" stroke-width="4" stroke-linecap="butt" stroke-linejoin="round" d="M356.759 719.09 L356.771 719.078 L356.789 718.998 L356.814 718.776 L356.84 718.444 L356.79 718.108 L356.783 717.797 L356.844 717.448 L356.928 717.158 L357.014 716.905 L357.107 716.667 L357.09 716.427 L357.104 716.25 L357.165 716.061 L357.187 715.869 L357.2 715.695 L357.148 715.567 L357.18 715.425 L357.128 715.271 L357.003 715.181 L356.9 715.065 L356.837 714.93 L356.786 714.812 L356.694 714.74 L356.591 714.68 L356.385 714.583 L356.228 714.451 L356.139 714.369 L356.029 714.312 L355.916 714.403 L355.609 714.403 L355.489 714.157 L355.561 714.074 L355.465 713.988 L355.395 713.915 L355.266 714.087 L354.987 714.025 L354.851 713.769 L354.875 713.7 L354.816 713.653 L354.77 713.622 L354.687 713.605 L354.547 713.6 L354.308 713.604 L354.14 713.555 L354.078 713.548 L354.016 713.565 L353.974 713.59 L353.879 713.57 L353.809 713.59 L353.769 713.682 L353.591 713.729 L353.399 713.829 L353.248 713.872 L353.08 713.949 L352.622 714.093 L352.224 714.291 L352.166 714.427 L351.839 714.644 L351.349 714.968 L350.856 715.281 L350.242 715.766 L349.503 716.225 L348.9 716.653 L348.247 717.116 L347.549 717.763 L346.765 718.503 L346.018 719.427 L344.979 720.331 L344.198 721.162 L343.693 721.943 L342.99 722.813 L342.281 723.746 L341.553 724.662 L340.945 726.149 L340.262 727.466 L339.7 727.97 L339.32 728.797 L338.889 729.774 L338.475 730.814 L338.2 731.931 L338.07 733.151 L337.84 734.185 L337.533 735.061 L337.203 736.039 L336.813 737.032 L336.493 738.024 L336.346 739.303 L336.135 740.492 L335.852 741.246 L335.621 742.09 L335.452 743.043 L335.299 744.102 L335.101 745.097 L335.266 745.963 L335.281 746.729 L334.91 747.565 L334.762 748.44 L334.692 749.272 L334.559 750.131 L334.399 750.863 L334.646 751.485 L334.681 752.308 L334.27 753.137 L334.164 753.918 L334.137 754.641 L334.203 755.513 L334.448 756.309 L334.534 756.969 L334.464 757.668 L334.517 758.418 L334.588 759.228 L334.674 760.027 L334.806 761.225 L335.32 762.223 L335.703 762.696 L335.659 763.328 L335.782 763.995 L335.967 764.677 L336.223 765.386 L336.445 766.071 L336.65 766.658 L336.944 767.19 L337.275 767.756 L337.583 768.342 L337.89 768.562 L338.24 769.054 L338.64 769.918 L339.06 770.469 L339.406 770.976 L339.766 771.49 L340.151 772.033 L340.515 772.256 L340.758 772.734 L341.066 773.454 L341.532 774.018 L341.94 774.567 L342.368 775.116 L342.866 775.62 L343.385 776.102 L343.816 776.719 L344.339 777.287 L344.926 777.792 L345.448 778.287 L346 778.758 L346.529 779.017 L347.059 779.334 L347.636 779.886 L348.185 780.374 L348.725 780.818 L349.306 781.251 L349.892 781.601 L350.353 781.965 L350.901 782.302 L351.628 782.63 L352.322 782.924 L352.981 783.239 L353.632 783.504 L354.376 783.75 L355.032 784.002 L355.694 784.136 L356.47 784.272 L357.29 784.409 L358.123 784.487 L358.952 784.244 L359.665 784.24 L360.368 784.588 L361.213 784.713 L361.992 784.772 L362.732 784.848 L363.518 784.875 L364.362 784.632 L365.114 784.59 L365.734 784.776 L366.447 784.802 L367.193 784.817 L367.923 784.773 L368.532 784.308 L369.22 784.084 L369.961 784.319 L370.7 784.298 L371.344 784.252 L372.047 784.149 L372.767 783.903 L373.425 783.406 L374.128 783.252 L374.853 783.265 L375.559 783.127 L376.304 782.923 L377.043 782.634 L377.732 782.253 L378.257 781.979 L378.856 781.743 L379.679 781.422 L380.457 780.991 L381.154 780.545 L381.809 780.041 L382.366 779.486 L382.964 779.067 L383.736 778.648 L384.425 778.109 L385.083 777.609 L385.762 777.075 L386.428 776.772 L386.814 776.336 L387.185 775.659 L387.801 775.002 L388.294 774.351 L388.713 773.769 L389.113 773.146 L389.617 772.544 L390.153 771.906 L390.614 771.205 L391.059 770.489 L391.497 769.804 L391.922 769.087 L392.299 768.402 L392.5 767.685 L392.877 766.883 L393.42 766.11 L393.827 765.328 L394.194 764.543 L394.515 763.914 L394.744 763.189 L395.037 762.295 L395.361 761.373 L395.628 760.412 L395.832 759.478 L395.961 758.54 L396.004 757.517 L396.209 756.485 L396.511 755.542 L396.647 754.553 L396.803 753.509 L397.01 752.374 L397.023 751.374 L396.941 750.295 L396.947 749.062 L396.908 747.952 L396.959 746.778 L397.097 745.498 L397.018 744.185 L397.045 742.928 L397.085 741.737 L396.94 740.409 L396.887 738.906 L396.948 737.303 L396.893 735.709 L396.714 734.206 L396.542 732.696 L396.452 731.089 L396.335 729.477 L396.165 727.88 L395.931 726.249 L395.671 724.503 L395.65 723.006 L395.432 721.717 L394.962 720.338 L394.599 718.943 L394.193 717.553 L393.78 716.235 L393.266 714.805 L392.902 713.521 L392.521 712.567 L391.96 711.545 L391.382 710.527 L390.886 709.573 L390.452 708.392 L390.056 707.398 L389.52 706.869 L388.952 706.18 L388.306 705.582 L387.711 704.999 L387.145 704.46 L386.541 703.689 L385.979 703.059 L385.438 702.803 L384.814 702.369 L384.06 701.939 L383.304 701.609 L382.6 701.144 L381.818 700.606 L380.929 700.323 L380.123 700.103 L379.302 699.885 L378.42 699.631 L377.461 699.363 L376.663 698.963 L375.818 698.785 L374.722 698.72 L373.597 698.532 L372.458 698.383 L371.251 698.293 L370.061 698.163 L368.887 698.026 L367.548 698.037 L366.15 698.097 L364.771 698.187 L363.33 698.294 L361.797 698.365 L360.522 698.593 L359.06 698.891 L357.295 699.25 L355.525 699.606 L353.765 700.005 L352.034 700.526 L350.339 700.838 L348.924 701.455 L347.436 702.368 L345.74 703.26 L344.206 704.208 L342.751 705.185 L341.322 706.245 L339.928 707.002 L338.577 707.986 L337.236 709.36 L335.894 710.739 L334.503 712.118 L333.193 713.463 L331.941 714.502 L330.862 715.645 L329.895 717.024 L328.995 718.333 L328.226 719.641 L327.53 720.976 L327.017 722.394 L326.391 723.871 L325.932 725.318 L325.799 726.727 L325.69 728.098 L325.674 729.519 L325.704 730.953 L325.86 732.607 L325.904 734.172 L326.203 735.366 L326.818 736.624 L327.355 737.993 L327.999 739.436 L328.815 740.866 L329.515 742.119 L329.515 742.119 L331.043 744.851 L331.043 744.851 "/></g><g><path fill="none" stroke="#000000" stroke-width="4" stroke-linecap="butt" stroke-linejoin="round" d="M368.277 793.519 L368.277 793.504 L368.278 793.377 L368.213 793.173 L368.112 792.925 L368.071 792.538 L368.11 792.537 L368.055 792.581 L368.008 792.53 L367.959 792.485 L367.874 792.391 L367.795 792.332 L367.756 792.246 L367.691 792.243 L367.607 792.361 L367.732 792.398 L367.776 792.437 L367.669 792.48 L367.638 792.429 L367.698 792.498 L367.7 792.68 L367.618 792.733 L367.573 792.842 L367.523 792.927 L367.466 793.123 L367.431 793.386 L367.479 793.436 L367.38 793.527 L367.23 793.684 L367.308 793.804 L367.229 793.976 L367.137 794.288 L367.09 794.629 L366.82 794.967 L366.411 795.584 L366.054 796.393 L365.644 797.294 L365.272 798.449 L364.847 799.934 L364.439 801.307 L364.015 802.557 L363.509 803.879 L363.044 805.276 L362.597 806.766 L362.317 808.157 L361.957 809.61 L361.64 811.271 L361.444 812.964 L361.253 814.681 L361.087 816.369 L360.941 817.911 L360.916 819.569 L360.835 821.567 L360.582 823.581 L360.388 825.483 L360.293 827.307 L360.174 829.113 L360.103 830.461 L359.964 831.862 L359.832 833.747 L359.74 835.53 L359.666 837.215 L359.553 838.897 L359.42 840.543 L359.382 842.094 L359.269 843.677 L359.133 845.335 L359.032 846.986 L358.938 848.575 L358.747 850.18 L358.469 851.851 L358.352 853.385 L358.223 854.69 L358.056 856.003 L357.977 857.297 L357.874 858.563 L357.775 859.932 L357.624 861.154 L357.458 861.968 L357.443 862.768 L357.53 863.584 L357.566 864.331 L357.605 864.908 L357.645 865.482 L357.633 866.119 L357.654 866.623 L357.732 866.946 L357.773 867.269 L357.805 867.578 L357.902 867.421 L357.762 867.508 L357.812 867.857 L358.083 868.066 L358.099 868.252 L358.089 868.296 L358.074 868.341 L358.056 868.289 L357.939 868.266 L357.878 868.415 L357.961 868.438 L357.951 868.541 L357.874 868.551 L357.866 868.264 L357.78 868.067 L357.725 868.208 L357.806 868.319 L357.875 868.372 L357.879 868.426 L357.856 868.522 L357.766 868.463 L357.723 868.392 L357.734 868.461 L357.773 868.484 L357.758 868.52 L357.761 868.475 L357.766 868.375 L357.772 868.315 L357.751 868.307 L357.758 868.378 L357.763 868.428 L357.771 868.45 L357.782 868.376 L357.636 868.391 L357.636 868.524 L357.76 868.552 L357.695 868.589 L357.757 868.566 L357.777 868.57 L357.796 868.585 L357.796 868.585 L357.747 868.911 L357.747 868.911 L357.77 869.43 L357.77 869.43 "/></g><g><path fill="none" stroke="#000000" stroke-width="4" stroke-linecap="butt" stroke-linejoin="round" d="M358.532 867.564 L358.526 867.564 L358.488 867.663 L358.542 867.667 L358.492 867.449 L358.283 867.396 L358.059 867.455 L357.895 867.419 L357.701 867.461 L357.895 867.5 L357.781 867.523 L357.381 867.457 L357.256 867.556 L357.144 867.56 L356.977 867.384 L356.722 867.625 L356.725 867.88 L356.527 867.737 L356.079 867.79 L355.753 867.909 L355.45 867.997 L355.081 868.151 L354.839 868.389 L354.37 868.639 L353.652 868.926 L352.897 869.35 L352.076 869.803 L351.238 870.146 L350.453 870.802 L349.498 871.845 L348.309 872.885 L347.214 874.11 L346.051 875.38 L344.796 876.724 L343.545 878.019 L342.136 879.46 L340.737 881.225 L339.403 883.005 L337.895 884.8 L336.321 886.687 L334.66 888.756 L333.101 890.91 L331.242 892.975 L329.334 895.181 L327.659 897.447 L325.844 899.626 L324 901.935 L322.227 904.35 L320.234 906.435 L318.345 908.356 L316.743 910.388 L315.051 912.365 L313.39 914.242 L311.831 916.135 L310.309 917.821 L308.504 919.252 L306.959 920.653 L305.906 921.974 L304.744 923.222 L303.58 924.159 L302.397 925.182 L301.197 926.442 L300.062 927.524 L299.118 928.608 L298.241 929.638 L297.384 930.636 L296.638 930.782 L295.858 931.352 L294.957 932.636 L294.081 933.601 L293.536 934.369 L293.047 934.942 L292.581 935.268 L292.08 935.563 L291.794 936.011 L291.571 936.422 L291.297 936.764 L291.112 937.102 L290.956 937.333 L290.889 937.194 L290.672 937.202 L290.611 937.492 L290.767 937.643 L290.713 937.734 L290.711 937.838 L290.708 938.03 L290.698 938.044 L290.613 938.116 L290.603 938.116 L290.6 938.112 L290.586 938.113 L290.587 938.037 L290.583 938.006 L290.578 938.039 L290.501 938.11 L290.586 938.202 L290.593 938.411 L290.717 938.481 L290.702 938.457 L290.54 938.686 L290.379 938.899 L290.307 939.179 L290.293 939.413 L290.233 939.307 L290.487 939.399 L290.594 939.75 L290.31 939.879 L290.173 940.024 L290.08 940.177 L290.055 939.866 L290.139 939.856 L290.247 940.268 L290.271 940.479 L290.217 940.639 L290.274 940.774 L290.393 940.995 L290.449 940.873 L290.626 940.814 L290.778 941.124 L290.947 941.308 L291.104 941.346 L291.274 941.376 L291.551 941.384 L291.888 941.376 L292.254 941.407 L292.656 941.344 L293.025 941.255 L293.428 941.052 L293.428 941.052 L294.476 940.415 L294.997 939.975 L295.564 939.394 L295.564 939.394 "/></g><g><path fill="none" stroke="#000000" stroke-width="4" stroke-linecap="butt" stroke-linejoin="round" d="M356.105 872.147 L356.092 872.102 L356.067 871.885 L356.087 871.514 L356.124 870.921 L356.069 870.289 L356.054 869.599 L356.179 868.936 L356.353 868.424 L356.528 868.119 L356.602 867.881 L356.687 867.752 L356.802 867.573 L356.86 867.398 L356.742 867.244 L356.838 867.144 L357.088 867.1 L357.228 867.006 L357.383 866.984 L357.471 866.915 L357.484 866.801 L357.523 866.816 L357.612 866.951 L357.633 867.06 L357.645 867.188 L357.692 867.332 L357.698 867.642 L357.42 867.785 L357.376 867.842 L357.509 867.979 L357.555 868.043 L357.586 868.113 L357.569 868.303 L357.615 868.307 L357.438 868.232 L357.301 868.448 L357.52 868.524 L357.669 868.665 L357.758 868.882 L357.885 869.284 L358.155 869.719 L358.553 869.976 L359.065 870.511 L359.634 871.239 L360.193 872.101 L360.787 873.333 L361.444 874.637 L362.085 875.711 L362.7 877.059 L363.45 878.544 L364.199 880.063 L364.877 881.65 L365.526 883.6 L366.29 885.527 L366.975 887.21 L367.493 888.962 L368.008 890.853 L368.497 892.857 L368.953 894.976 L369.341 897.07 L369.904 898.988 L370.396 900.953 L370.682 903.034 L371.06 905.015 L371.383 906.831 L371.734 908.589 L372.091 910.406 L372.352 912.335 L372.694 914.211 L373.056 915.918 L373.374 917.528 L373.748 918.952 L374.124 920.445 L374.613 922.099 L374.965 923.685 L375.125 925.151 L375.411 926.506 L375.707 927.921 L376.126 929.274 L376.486 930.557 L376.685 931.746 L376.931 932.928 L377.224 934.114 L377.543 935.222 L377.808 936.506 L378.411 937.509 L378.95 938.013 L379.033 938.613 L379.216 939.193 L379.48 939.736 L379.707 940.346 L380.061 940.921 L380.51 941.276 L380.727 941.621 L380.793 941.927 L380.981 942.171 L381.136 942.35 L381.223 942.865 L381.557 943.121 L381.632 942.883 L381.503 942.951 L381.622 942.866 L381.595 942.856 L381.589 942.75 L381.505 942.685 L381.512 942.644 L381.463 942.454 L381.289 942.384 L381.205 942.215 L381.128 942.209 L381.054 942.165 L380.976 942.096 L380.842 942.029 L380.862 941.958 L380.869 941.917 L380.848 941.857 L380.857 941.788 L381.025 941.775 L381.042 941.785 L380.996 941.773 L380.979 941.781 L381.015 941.769 L381.094 941.703 L381.102 941.68 L381.049 941.485 L381.049 941.485 L381.049 941.485 "/></g><g><path fill="none" stroke="#000000" stroke-width="4" stroke-linecap="butt" stroke-linejoin="round" d="M262.505 869.827 L262.471 869.822 L262.233 869.737 L261.615 869.398 L260.714 868.364 L259.582 867.256 L258.42 866.785 L257.825 866.162 L257.405 865.666 L256.993 865.253 L256.789 864.66 L256.669 864.175 L256.702 864.2 L256.778 864.259 L256.844 864.3 L256.901 864.373 L257.039 864.47 L257.198 864.488 L257.255 864.55 L257.5 864.851 L257.903 865.052 L257.969 865.273 L258.169 865.402 L258.406 865.514 L258.656 865.604 L259.039 865.727 L259.534 865.868 L260.183 865.873 L260.868 865.815 L261.577 865.66 L262.38 865.459 L263.28 865.259 L264.18 865.041 L265.066 864.762 L265.994 864.456 L266.987 864.077 L268.095 863.767 L269.343 863.422 L270.528 862.957 L271.725 862.521 L273.098 862.032 L274.579 861.508 L276.19 860.825 L277.968 860.181 L280.239 859.486 L282.475 858.581 L284.334 857.665 L286.335 856.794 L288.58 855.98 L290.985 855.031 L293.393 854.002 L296.037 852.952 L299.124 851.829 L302.469 850.659 L305.891 849.371 L309.362 848.002 L312.879 846.39 L316.485 844.925 L320.238 843.694 L323.999 842.299 L327.905 840.838 L331.926 839.351 L335.947 837.75 L339.953 836.17 L343.941 834.791 L347.796 833.283 L351.53 831.764 L355.182 830.293 L358.847 828.842 L362.541 827.253 L366.205 825.712 L369.736 824.388 L373.166 823.106 L376.463 821.86 L379.727 820.651 L382.87 819.513 L385.897 818.466 L388.801 817.571 L391.456 816.637 L393.975 815.726 L396.419 814.868 L398.688 814.172 L400.75 813.753 L402.735 813.099 L404.712 812.235 L406.443 811.661 L408.027 811.125 L409.555 810.613 L411.044 810.506 L412.363 810.347 L413.726 809.737 L415.367 809.289 L416.925 808.815 L418.466 808.457 L419.905 808.071 L421.327 807.928 L422.741 807.568 L424.131 807.002 L425.488 806.642 L426.804 806.319 L428.102 805.918 L429.416 805.59 L430.78 805.384 L432.174 804.969 L433.421 804.49 L434.548 804.085 L435.643 803.74 L436.675 803.065 L437.666 802.669 L438.526 802.541 L439.273 802.186 L440.02 801.94 L440.675 801.718 L441.219 801.522 L441.648 801.204 L442.043 800.985 L442.335 801.045 L442.502 801.055 L442.528 801.096 L442.506 801.114 L442.501 801.214 L442.394 801.355 L442.231 801.425 L442.053 801.491 L441.902 801.57 L441.868 801.687 L441.803 801.689 L441.553 801.681 L441.456 801.809 L441.448 801.722 L441.356 801.969 L441.457 802.122 L441.444 801.931 L441.321 801.907 L441.351 801.858 L441.446 801.857 L441.705 801.906 L441.806 801.8 L441.635 801.671 L441.67 801.73 L441.686 801.595 L441.73 801.259 L441.954 801.091 L442.01 801.207 L441.901 801.261 L441.939 801.289 L441.955 801.155 L442.034 800.92 L442.066 801.029 L441.995 801.155 L441.981 801.229 L441.994 801.291 L441.97 800.93 L442.088 800.692 L442.083 801.033 L442.009 801.194 L441.98 801.284 L441.915 801.362 L441.885 801.314 L441.902 801.171 L441.844 801.224 L441.847 801.356 L441.823 801.421 L441.877 801.446 L441.866 801.467 L441.823 801.512 L441.737 801.546 L441.707 801.665 L441.787 801.632 L441.837 801.628 L441.776 801.623 L441.746 801.614 L441.681 801.603 L441.673 801.589 L441.672 801.511 L441.7 801.454 L441.76 801.457 L441.76 801.457 L442.095 801.408 L442.095 801.408 "/></g>
</svg>
