<svg id="Layer_1" data-name="Layer 1" xmlns="http://www.w3.org/2000/svg" viewBox="0 0 1404 1464.02">
  <path d="M352.71,1012.77h0c4.24-.54,8.46-1.36,12.73-1.62.71,0,1.31.7,2,.71s1.32-.64,2-.64c.39,0,.6.52,1,.64a2.85,2.85,0,0,0,1.09,0c9-.86,17.91-2.12,26.9-2.71.73,0,1.31.76,2,.82a38.07,38.07,0,0,0,7,0c.71-.06,1.28-.75,2-.78.39,0,.6.52,1,.64a2.85,2.85,0,0,0,1.09,0c9-.86,17.91-2.06,26.9-2.71.42,0,.66.71,1.08.68,29.32-1.65,58.6-4,87.92-5.68.42,0,.65.71,1.08.68,5.33-.31,10.59-1.35,15.92-1.68.4,0,.63.63,1,.64s.61-.61,1-.6.6.55,1,.65a5,5,0,0,0,2,.13c.7-.11,1.28-.75,2-.78.41,0,.63.65,1,.64,1.6-.06,3.13-.69,4.73-.83,12.05-1.08,24.11-2.13,36.19-2.85.4,0,.63.64,1,.64s.59-.57,1-.65a4.62,4.62,0,0,1,2.06,0c.38.09.55.69.94.69.71,0,1.32-.64,2-.64.41,0,.64.67,1,.64,4.33-.32,8.59-1.37,12.92-1.68.42,0,.66.7,1.08.68,8.65-.33,17.25-1.4,25.9-1.71.74,0,1.36.74,2.1.71,7-.29,13.93-1.36,20.92-1.68.42,0,.66.72,1.08.68,3.34-.3,6.58-1.38,9.92-1.68.42,0,.66.71,1.08.68,8.66-.64,17.26-2,25.92-2.68.4,0,.62.55,1,.68a2.5,2.5,0,0,0,1.09,0c8.31-.86,16.58-2.06,24.9-2.71.42,0,.66.72,1.08.67,3.92-.45,7.73-1.59,11.64-2.14,7.07-1,14.16-1.94,21.28-2.53.42,0,.66.72,1.08.68,20.9-1.87,41.76-4.12,62.62-6.39,8.78-1,17.5-2.45,26.3-3.29.4,0,.62.55,1,.68a2.24,2.24,0,0,0,1.09,0c2.65-.5,5.22-1.4,7.9-1.71.41,0,.62.6,1,.69a6.11,6.11,0,0,0,2.09,0c11.71-1.41,23.42-2.84,35.1-4.51,4-.57,7.83-1.72,11.8-2.2.4,0,.63.55,1,.68a2.24,2.24,0,0,0,1.09,0c2.64-.51,5.2-1.46,7.88-1.74.73-.07,1.36.79,2.1.7,2-.24,3.89-1.38,5.92-1.67.42-.06.66.73,1.08.67,2.37-.33,4.6-1.42,7-1.82a8.54,8.54,0,0,1,3,.14c.38.07.6.77,1,.65.81-.27,1.12-1.53,2-1.64,1.36-.19,2.67,1,4,.82s2.54-1.52,4-1.84a11.42,11.42,0,0,1,4.08,0c.39.05.61.77,1,.67,1.09-.27,1.85-1.36,2.94-1.64.39-.1.63.64,1,.62.71,0,1.29-.75,2-.77s1.17.85,1.79.68.88-1.28,1.55-1.6a2.46,2.46,0,0,1,1.69,0c.38.11.56.64.94.7a5.11,5.11,0,0,0,3,0c.42-.21-.31-.88-.32-1.34,0-.16.16-.42.3-.35.81.39,1.31,1.53,2.21,1.56.71,0,.88-1.38,1.59-1.42s1,1.26,1.66,1.23.93-1,1.51-1.37a2,2,0,0,1,1-.13,8.1,8.1,0,0,1,2,.13c.37.1.58.64,1,.65s.61-.58,1-.6.49.6.79.51c.67-.19,1-1,1.69-1.23.25-.11.52.3.78.22,1.28-.38,2.36-1.36,3.68-1.56.73-.11,1.37.79,2.09.69,2.72-.4,5.26-1.58,8-2.15,2.53-.54,5.1-.82,7.66-1.19,20-2.85,40-5.48,60-8.47.83-.12,1.52-.8,2.36-.85.42,0,.65.72,1.07.67a48.06,48.06,0,0,0,7.16-1.79c.63-.18,1.11-.82,1.77-.87.4,0,.61.61,1,.67a7.84,7.84,0,0,0,3.09,0c1.38-.34,2.52-1.41,3.91-1.7.41-.08.66.74,1.07.66,8.69-1.62,17.2-4.13,25.9-5.69.72-.13,1.37.83,2.09.68,1.1-.22,1.85-1.33,2.92-1.68a4,4,0,0,1,2.08,0c.39.09.61.75,1,.68,5.69-.94,11.23-2.71,16.92-3.66.42-.07.67.76,1.07.66,2.41-.6,4.53-2.06,6.94-2.66.4-.1.66.75,1.07.66,11.54-2.49,23-5.42,34.43-8.33,2.54-.65,4.93-1.83,7.5-2.33.41-.08.66.75,1.07.66,3.27-.71,6.35-2.13,9.58-3,2.69-.7,5.49-.88,8.16-1.65.51-.15.66-1,1.19-1.05,1.06-.09,2,.9,3.09.7,11.1-2.11,22.06-4.9,33-7.57,2.32-.57,4.51-1.69,6.87-2.12.41-.07.66.78,1.07.66,11.76-3.39,23.29-7.54,35-11.06,9-2.68,18.07-4.74,27-7.52,2.41-.76,4.52-2.33,6.93-3.07.38-.12.68.82,1,.62s-.45-.8-.21-1.08a16,16,0,0,1,4.49-4c3-1.59,6.35-2.19,9.44-3.5.51-.21.74-.95,1.28-1s.64.73,1,.62c2.08-.6,3.85-2.05,5.94-2.65.38-.11.62.55,1,.67a1.84,1.84,0,0,0,1.09,0,57.83,57.83,0,0,0,8.6-2.55,5.25,5.25,0,0,0,2.09-2.09,13.63,13.63,0,0,0,1.62-3.66,3.73,3.73,0,0,0,0-2.12,39.8,39.8,0,0,0-2.95-6.6c-.37-.65-1.31-.87-1.63-1.55-.14-.28.45-.49.51-.8,0-.13-.16-.32-.3-.29-.38.09-.63.73-1,.6-.81-.28-1.13-1.48-2-1.64-1-.2-2.18,1.23-3.06.67s0-2.14-.57-3a15.5,15.5,0,0,0-3.71-3.16,8.37,8.37,0,0,0-2.64-1.57,7.27,7.27,0,0,0-3.08,0c-.38.06-.58.64-1,.65s-.65-.76-1-.6a15.14,15.14,0,0,0-3.45,2.64,7.44,7.44,0,0,0-1.76,1.87c-.11.21.55.39.41.58a4.46,4.46,0,0,1-1.7,1.17c-3.06,1.52-6,3.39-9.31,4.3-.68.18-1-1.45-1.65-1.28-1,.25-1.27,2.07-2.33,2.23-.89.13-1.31-1.61-2.21-1.56-.56,0,.52,1.42,0,1.68s-1.33-.79-2-.63-1.19,1.33-2,1.6c-.37.12-.63-.72-1-.6-.81.27-1.19,1.34-2,1.6-.39.12-.64-.71-1-.64-6.7,1.29-13.22,3.39-19.92,4.68-.4.07-.63-.63-1-.64s-.61.61-1,.6-.6-.52-1-.64a1.77,1.77,0,0,0-1.09,0c-1.34.46-2.54,1.26-3.88,1.73-.55.19-1.22,0-1.72.23s-.84,1.39-1.55,1.61-1.18-.57-1.82-.55c-.39,0-.58.63-1,.64s-.63-.72-1-.6c-.81.27-1.19,1.34-2,1.6-.37.12-.59-.59-1-.65a7.84,7.84,0,0,0-3.09,0,54.11,54.11,0,0,0-7.69,2.64c-.5.2-.72.93-1.25,1s-.61-.6-1-.6-.61.61-1,.6-.6-.53-1-.64a1.39,1.39,0,0,0-1.06,0c-.75.41-1.16,1.37-2,1.64-.37.12-.59-.57-1-.65a5.44,5.44,0,0,0-2.09,0q-9.75,1.7-19.44,3.74c-2.51.54-4.92,1.58-7.46,2-.42.07-.67-.78-1.08-.66-16.39,4.59-32.53,10.07-48.93,14.66-.4.11-.66-.76-1.06-.66-6.72,1.6-13.22,4.06-19.94,5.66-.4.1-.66-.76-1.06-.66-2.4.6-4.54,2.06-6.94,2.66-.4.1-.66-.76-1.06-.65-1.08.28-1.81,1.46-2.92,1.68-.71.14-1.36-.8-2.08-.69a12.31,12.31,0,0,0-3.7,1.58c-.48.26-.73,1-1.27,1.05-.38.07-.6-.52-1-.64a1.63,1.63,0,0,0-1.09,0c-1,.44-1.79,1.48-2.89,1.72-.7.15-1.35-.83-2-.66s-1.13,1.48-2,1.64c-1,.2-2-.78-3.06-.68-.54.05-.73.85-1.22,1.07a16.35,16.35,0,0,1-4.69,1.63c-.93.12-1.79-.86-2.72-.72-.75.11-1.12,1.08-1.82,1.38-.24.11-.5-.3-.77-.24-1.61.38-3.08,1.29-4.71,1.55-.4.07-.64-.7-1-.63s-.74.83-1.24,1a26.61,26.61,0,0,1-5.72,1.61c-.41.06-.66-.75-1.07-.65-1.67.38-3.1,1.52-4.75,2-4.36,1.24-8.79,2.25-13.24,3.11-9.71,1.89-19.47,3.46-29.22,5.14-4.9.84-9.78,1.87-14.72,2.42-.42,0-.66-.74-1.08-.68-2,.29-3.89,1.38-5.92,1.67-.4.06-.63-.54-1-.67a2.5,2.5,0,0,0-1.09,0c-9.64,1.19-19.24,2.73-28.9,3.71-.42,0-.66-.73-1.08-.68-16,2-31.91,4.72-47.92,6.68-.4,0-.63-.55-1-.68a2.36,2.36,0,0,0-1.09,0c-8.31,1.18-16.56,2.74-24.9,3.71-.42,0-.66-.73-1.08-.68-2.68.3-5.24,1.38-7.92,1.68-.42,0-.66-.72-1.08-.68-14,1.3-27.92,3.36-41.92,4.68-.4,0-.63-.63-1-.64s-.61.6-1,.6-.61-.6-1-.6-.61.6-1,.6-.63-.72-1-.6c-.81.27-1.19,1.34-2,1.6-.37.12-.59-.57-1-.65a4.77,4.77,0,0,0-2.06,0c-.38.08-.58.65-1,.65s-.64-.68-1-.64c-3.34.32-6.57,1.44-9.92,1.68-.73,0-1.31-.89-2-.81-2.38.26-4.59,1.47-7,1.8-.4.06-.61-.67-1-.67-.71,0-1.32.66-2,.64s-1.29-.85-2-.77c-3,.32-6,1.63-9,1.94-.71.07-1.28-.66-2-.82a5.32,5.32,0,0,0-2-.14c-3.13.51-6.23,1.19-9.3,2-.6.15-1.06.79-1.68.83-.41,0-.61-.58-1-.67a5.65,5.65,0,0,0-2.09,0c-1.48.24-2.9.82-4.38,1.05-5.18.81-10.38,1.48-15.59,2.06-6.74.76-13.49,1.44-20.24,2-22.24,1.72-44.5,3-66.73,4.74-2,.15-4,.82-6,.9-.41,0-.63-.63-1-.64s-.61.61-1,.6-.59-.58-1-.65a15.32,15.32,0,0,0-3-.15,7.67,7.67,0,0,0-2,.15c-.37.1-.58.66-1,.65-.71,0-1.29-.77-2-.77s-1.29.74-2,.77c-.41,0-.64-.66-1-.64-7,.33-13.93,1.42-20.92,1.68-.73,0-1.31-.85-2-.81-5.67.3-11.28,1.46-17,1.81-.42,0-.66-.71-1.08-.68-5.68.35-11.28,1.57-17,1.81-1,0-2-.78-3-1a4.8,4.8,0,0,0-2,.13c-.39.11-.6.7-1,.69-13.33-.37-26.64-1.32-40-1.83a71,71,0,0,0-8,0c-.71.06-1.28.74-2,.79-.39,0-.61-.62-1-.6-.71,0-1.29.77-2,.77s-1.29-.73-2-.77c-.39,0-.61.6-1,.6s-.61-.61-1-.6c-.72,0-1.34.7-2.06.67-8.36-.34-16.7-1-25-1.78-5.63-.49-11.21-1.54-16.86-1.93-.42,0-.66.72-1.08.68-3.34-.3-6.58-1.38-9.92-1.68-.42,0-.66.72-1.08.68-11.35-1-22.58-3.31-34-3.83-17-.76-34-.26-51,0-.71,0-1.26.8-2,.83s-1.32-.66-2-.64-1.29.71-2,.78a32.39,32.39,0,0,1-6,0c-2.17-.19-4.28-.83-6.44-1.08-6.16-.69-12.33-1.37-18.53-1.75-.33,0-.52.67-.84.55-.62-.24-.75-1.27-1.4-1.42s-1.16.64-1.8.69a49.56,49.56,0,0,1-7,0c-.46,0-1.1-.06-1.3-.47s.51-.63.6-1c0-.13-.13-.34-.28-.32-1,.15-2,.75-3,.81a92.66,92.66,0,0,1-10,0c-.46,0-1.1-.06-1.3-.47s.51-.63.6-1c0-.14-.14-.28-.28-.33a2,2,0,0,0-1-.13c-.7.15-1.29.74-2,.77-.39,0-.58-.64-1-.64-.71,0-1.32.64-2,.64-.39,0-.58-.64-1-.64-.71,0-1.32.64-2,.64-.39,0-.6-.53-1-.64a1.82,1.82,0,0,0-1.06,0c-.69.19-1.26.79-2,.82-5,.25-10,.24-15,0-.71,0-1.28-.75-2-.78-.39,0-.59.58-1,.65a9.58,9.58,0,0,1-3,.14c-3.68-.46-7.26-1.52-10.95-1.86-.72-.06-1.34.69-2.06.67s-1.29-.77-2-.77-1.31.92-2,.79c-1.1-.2-1.86-1.3-2.92-1.68a6.09,6.09,0,0,0-2.05-.14c-5,0-10-.34-15,0-.77.05-1.19,1.2-2,1.2s-1.25-.91-2-1.2a2.79,2.79,0,0,0-1,0c-4.67,0-9.34-.23-14,0-.71,0-1.26.81-2,.83s-1.3-.68-2-.68-1.32.63-2,.64c-.39,0-.61-.6-1-.6s-.61.62-1,.6c-.72,0-1.3-.67-2-.78a5,5,0,0,0-2,.13c-.37.1-.58.66-1,.65-.71,0-1.29-.78-2-.77s-1.27.69-2,.82a17,17,0,0,1-3,.15c-2.66,0-5.34.21-8,0-.71-.06-1.27-.7-2-.83a9.35,9.35,0,0,0-3-.13c-1,.14-2,.86-3,1a36.38,36.38,0,0,1-7,0c-.71-.06-1.26-.8-2-.82s-1.35.74-2.07.68c-3-.27-5.91-1.38-8.92-1.68-.4,0-.61.68-1,.68-.71,0-1.32-.64-2-.64-.39,0-.58.64-1,.64-.71,0-1.32-.64-2-.64-.41,0-.64.67-1,.64-4-.33-7.9-1.41-11.9-1.71-.72,0-1.34.69-2.06.67s-1.3-.67-2-.78a5,5,0,0,0-2,.13c-.37.1-.58.67-1,.65-.72,0-1.29-.72-2-.78a68.1,68.1,0,0,0-7,0,9.17,9.17,0,0,0-2,.15c-.69.17-1.26.79-2,.83a59.34,59.34,0,0,1-11,0c-1.45-.18-2.55-1.48-4-1.85a6.42,6.42,0,0,0-3.11,0,10.26,10.26,0,0,0-3.67,1.62,14,14,0,0,0-3.57,3.75c-.21.34.73.64.62,1-.29,1.09-1.67,1.81-1.69,2.94,0,.92,1.28,1.38,1.58,2.24.11.3-.59.49-.51.79s.65.28.86.55c.65.82.9,2,1.69,2.65.23.2.49-.63.76-.5.76.39,1,1.5,1.82,1.8,3.35,1.25,7.12,1.26,10.37,2.76.56.27-.63,1.12-.69,1.74a8.82,8.82,0,0,0,.14,4c.49,1.23,2,1.79,2.65,3,.18.35-.51.63-.6,1,0,.14.14.3.28.33.8.15,2.08-.55,2.45.19,1.35,2.75,1.06,6.07,2.06,9a4.93,4.93,0,0,0,1.82,2.27,11.67,11.67,0,0,0,3.63,1.59,4.48,4.48,0,0,0,2.09,0c.38-.08.58-.64,1-.65s.63.72,1,.6c.81-.27,1.19-1.34,2-1.6.37-.12.58.65,1,.64.73,0,1.35-.74,2.07-.68,3.34.28,6.58,1.38,9.92,1.68.41,0,.61-.6,1-.69a4.77,4.77,0,0,1,2.06,0c.38.08.58.64,1,.65s.65-.74,1-.62a4.08,4.08,0,0,1,2.34,1.69c.25.44-.86,1-.58,1.41a7.89,7.89,0,0,0,3.44,2.93c2.43,1,5.28.77,7.73,1.75,1,.41,1.4,1.71,2.32,2.29a9.42,9.42,0,0,0,3.09,1.13c13.5,2.8,27,5.51,40.59,8,7.63,1.37,15.3,2.59,23,3.5.42,0,.66-.72,1.08-.68,3.36.35,6.62,1.35,10,1.82a4.93,4.93,0,0,0,2-.13c.39-.11.6-.72,1-.69,14.66,1,29.26,2.71,43.92,3.68.41,0,.62-.58,1-.69a7.67,7.67,0,0,1,2-.15,38.38,38.38,0,0,1,5,.15c.38.05.58.65,1,.65s.59-.59,1-.65a16.48,16.48,0,0,1,4-.14m19.06-9.17h0c-.35-.22-.64-.65-1.05-.64s-.61.55-1,.65a7.67,7.67,0,0,1-2,.15c-18,0-36,.26-54,0-.71,0-1.26-.8-2-.82s-1.35.72-2.07.68a122.22,122.22,0,0,1-17.2-1.6c-.63-.13.66-1.32,1.29-1.45s.73,1,1.24.91c1.63-.17,3-1.28,4.67-1.53.4-.07.64.62,1,.63s.61-.62,1-.6c.72,0,1.29.73,2,.78a50.87,50.87,0,0,0,8,0c.71,0,1.28-.75,2-.78.39,0,.59.6,1,.65a38.38,38.38,0,0,0,5,.15,7.67,7.67,0,0,0,2-.15c.37-.1.58-.64,1-.65s.61.61,1,.6.6-.55,1-.65a4.81,4.81,0,0,1,2-.13c.72.12,1.31.86,2,.82,5-.25,9.92-1.37,14.92-1.68.4,0,.6.68,1,.68.71,0,1.32-.64,2-.64.41,0,.64.66,1,.64,10-.34,19.92-1.38,29.9-1.71.72,0,1.34.65,2.06.67.39,0,.61-.61,1-.6s.64.66,1,.64c9.32-.33,18.6-1.35,27.92-1.68.4,0,.63.63,1,.64s.61-.62,1-.6c.72,0,1.3.67,2,.78a5.16,5.16,0,0,0,2-.13c.69-.17,1.26-.75,2-.84a22.59,22.59,0,0,1,5,0c.71.08,1.28.75,2,.79.39,0,.58-.64,1-.64.71,0,1.32.64,2,.64.39,0,.6-.53,1-.64a1.91,1.91,0,0,1,1.06,0c.68.18,1.26.8,2,.81s1.29-.77,2-.77,1.29.77,2,.77,1.29-.73,2-.77c.39,0,.61.61,1,.6s.59-.6,1-.65a22.87,22.87,0,0,1,5-.14c.71.07,1.28.75,2,.79.39,0,.6-.53,1-.64s.84-.27,1,0,.1.94-.24,1a57,57,0,0,1-9.79,1.79,44.42,44.42,0,0,1-8,0c-.73-.06-1.31-.89-2-.82-2.71.27-5.26,1.54-8,1.81-.73.07-1.31-.86-2-.81-3.34.25-6.56,1.43-9.9,1.71-.73.06-1.36-.75-2.1-.71m-114.92.66h0c-.45-.11-1.33.14-1.34-.32s.88-.43,1.32-.33m164-2.36h0c-.33-.22-.61-.66-1-.66-.72,0-1.35.81-2.06.67-.87-.17-3-1.23-2.18-1.51a12.56,12.56,0,0,1,7.26-.16m14,.67h0a10.79,10.79,0,0,1-2,.16c-.46,0-1.65-.15-1.31-.48a3.25,3.25,0,0,1,2.3-.48,2.26,2.26,0,0,1,1.31.48m-5.27.32h0c-.45-.11-1.33.14-1.34-.32s.88-.43,1.32-.33m-3,.65h0c-.45-.11-1.33.14-1.34-.32s.88-.43,1.32-.33m145-10.35h0c-5.34.06-10.69.26-16,.16-.46,0-1.3,0-1.3-.48s.84-.47,1.3-.48q7.5-.22,15,0a2.33,2.33,0,0,1,1.31.48m45.77-.65h0a7.37,7.37,0,0,0-2.08-.65c-.39,0-.58.64-1,.64-.71,0-1.32-.63-2-.64-.39,0-.61.6-1,.6s-.61-.6-1-.6-.61.61-1,.6-.58-.64-1-.64c-.71,0-1.35.84-2,.64-.43-.13-.55-.93-.33-1.33s.87-.44,1.34-.45c4.69-.11,9.45-.72,14,.12m-21,1.68h0c-2,.06-4,.25-6,.16-.46,0-1.3,0-1.3-.48s.84-.45,1.3-.48a32.1,32.1,0,0,1,5,0,2.49,2.49,0,0,1,1.31.48m46.74-.67h0c-1,0-2.13.39-3.08,0-.43-.17-.55-1-.31-1.37s.91-.38,1.37-.31.58.63,1,.64.66-.79,1-.6.31.88.33,1.33m-13.3.29h0c-.45-.11-1.33.14-1.34-.32s.88-.43,1.32-.33m-9,.65h0c-.45-.11-1.33.14-1.34-.32s.88-.43,1.32-.33m37-.34h0c-.76-.05-2.23.61-2.26-.14s1.3-1.57,2.19-1.51m-3.94,1.64h0c-.45-.11-1.33.14-1.34-.32s.88-.43,1.32-.33m-3,.65h0a14.17,14.17,0,0,1-2.06,0c-.15,0-.42-.29-.28-.34a5.29,5.29,0,0,1,2.32-.34m-410.94-2.31h0a15.48,15.48,0,0,0-3.11-.69c-.39,0-.58.63-1,.64s-.61-.62-1-.6c-.72,0-1.29.75-2,.78q-8,.36-16,0c-.71,0-1.28-.78-2-.78s-1.29.78-2,.77-1.28-.65-2-.82a8.61,8.61,0,0,0-2-.15,7.67,7.67,0,0,0-2,.15c-.39.11-.6.74-1,.69-2.35-.3-4.54-1.44-6.9-1.71-.73-.08-1.37.79-2.1.7-2-.24-3.89-1.36-5.92-1.67-.4-.06-.63.63-1,.64s-.61-.61-1-.6-.64.71-1,.63a8.36,8.36,0,0,1-4.16-1.6c-.39-.35.71-.82,1.17-1.08a2.12,2.12,0,0,1,1-.13,8.1,8.1,0,0,1,2,.13c.37.1.58.64,1,.65s.61-.61,1-.6.58.65,1,.64c.71,0,1.3-.68,2-.68s1.32.63,2,.64c.39,0,.61-.61,1-.6s.6.55,1,.65a7.67,7.67,0,0,0,2,.15,15.32,15.32,0,0,0,3-.15c.38-.07.58-.67,1-.65.72,0,1.3.67,2,.78a5,5,0,0,0,2-.13c.37-.1.58-.65,1-.65s.6.53,1,.64a1.82,1.82,0,0,0,1.06,0c.69-.19,1.27-.7,2-.82a5,5,0,0,1,2,.13c.69.16,1.26.81,2,.82s1.29-.74,2-.77c.39,0,.6.56,1,.65a4.17,4.17,0,0,0,2.07.13c.74-.2,1.19-1.18,2-1.21s1.24,1,2,1.09c.4.06.61-.66,1-.66s.6.53,1,.64a1.82,1.82,0,0,0,1.06,0c.69-.19,1.26-.76,2-.82a26,26,0,0,1,7,0c3.57.65,8.47.09,10.41,3.14m104.45-2.46h0a45.16,45.16,0,0,0-5.81-1.53c-.4,0-.61.7-1,.68-1,0-2-.81-3-.81s-1.74,1-2.66.83c-.76-.09-1.14-1-1.82-1.38a3.6,3.6,0,0,0-1.49-.33,13.52,13.52,0,0,0-3,0c-.32,0-.47.65-.78.56-.66-.18-1-1.06-1.67-1.23s-1,.47-1.59.38c-2.34-.36-4.55-1.39-6.9-1.7-.42,0-.66.76-1.08.67A16.85,16.85,0,0,1,356.1,970c-.14-.07-.13-.45,0-.47.46-.06.91.34,1.37.28s.61-.6,1-.6.61.62,1,.6c.71,0,1.29-.77,2-.77s1.29.82,2,.77c.52,0,.69-.91,1.21-1a83.36,83.36,0,0,1,13.63-1.59c.67,0,.74,1.19,1.34,1.5.22.11.1-.57.32-.65a34.16,34.16,0,0,1,6.46-1.9c.42-.06.66.72,1.08.68,3.69-.35,7.27-1.51,11-1.81.71-.06,1.29.73,2,.77.39,0,.61-.62,1-.6.71,0,1.29.77,2,.77s1.29-.73,2-.77c.39,0,.61.6,1,.6s.61-.61,1-.6.6.55,1,.65a7.67,7.67,0,0,0,2,.15,16,16,0,0,0,3-.15c.32-.06.48-.68.78-.56.62.24.75,1.27,1.4,1.42s1.16-.62,1.8-.7a16.22,16.22,0,0,1,4,0c.7.1,1.26.8,2,.83s1.32-.66,2-.64,1.29.77,2,.77,1.29-.73,2-.77c.39,0,.61.61,1,.6s.6-.55,1-.65a6,6,0,0,1,2-.14c5.34.51,10.62,1.53,16,1.83.73,0,1.31-.86,2-.81a119.39,119.39,0,0,1,16.21,2.09c.78.16-1.42.84-2.21.85s-1.31-.85-2-.81c-6.53.32-13,1.11-19.52,1.87-1.16.13-2.24.77-3.4.8-.43,0-.66-.71-1.08-.67-3.67.31-7.25,1.38-10.92,1.68-.41,0-.62-.59-1-.69a5.5,5.5,0,0,0-2-.14c-4.34.49-8.62,1.47-13,1.83-.4,0-.61-.68-1-.68-.71,0-1.32.64-2,.64-.41,0-.64-.69-1-.64-2.35.31-4.57,1.38-6.92,1.68-.4,0-.61-.68-1-.68-.71,0-1.32.64-2,.64-.39,0-.59-.59-1-.65a10.37,10.37,0,0,0-4.07-.13m-39.92-3.2h0c-.45-.11-1.33.14-1.34-.32s.88-.43,1.32-.33m316-1.35h0c-.45-.11-1.33.14-1.34-.32s.88-.43,1.32-.33m-3,.65h0a14.17,14.17,0,0,1-2.06,0c-.15,0-.42-.29-.28-.34a5.29,5.29,0,0,1,2.32-.34m70-3.34h0c0-.21-.25-.6,0-.65.44-.11,1.31-.13,1.33.33m11.41-1h0a3.74,3.74,0,0,1,1.29-.51,3.21,3.21,0,0,1,2.3.48c.34.32-.84.48-1.3.48m-80-.16h0c-.45-.11-1.33.14-1.34-.32s.88-.43,1.32-.33m-381,.66h0a4,4,0,0,0-1-.69,8.07,8.07,0,0,0-2-.14,15.32,15.32,0,0,0-3,.15c-.38.07-.58.64-1,.65s-.61-.6-1-.6-.64.75-1,.6c-1.46-.61-2.44-2.16-3.95-2.66-.68-.22-1.34.73-2.05.66-.51-.05-1.7-.94-1.19-1,8.68-.93,17.41-1.37,26.13-1.68.72,0,1.34.65,2.06.67.39,0,.61-.61,1-.6s.6.53,1,.64a1.67,1.67,0,0,0,1.06,0c.37-.13.57-.59.94-.69a5.72,5.72,0,0,1,2-.14c6.16.6,12.34,1.15,18.45,2.1.28,0-.17.6-.42.72a1.41,1.41,0,0,1-1,0c-.37-.12-.55-.68-.94-.68-.71,0-1.32.63-2,.64-.39,0-.61-.6-1-.6s-.61.6-1,.6-.61-.61-1-.6-.58.65-1,.64c-.73,0-1.35-.79-2.06-.67-1.41.23-2.54,1.37-3.94,1.66-.39.08-.63-.62-1-.63s-.61.6-1,.6-.61-.6-1-.6-.61.61-1,.6-.6-.53-1-.64a1.67,1.67,0,0,0-1.06,0c-.36.12-.58.56-.94.68a1.61,1.61,0,0,1-1.06,0c-.36-.12-.57-.55-.94-.68a2.5,2.5,0,0,0-1.09,0m416.1.69h0a4.31,4.31,0,0,1-1.35-.14c-.71-.33-2.07-.61-1.91-1.37s1.54-.4,2.25-.16a2.86,2.86,0,0,1,1.27,1.36m-15.26.31h0c-.45-.11-1.33.14-1.34-.32s.88-.43,1.32-.33m80.69-.64h0a5.68,5.68,0,0,1,1.31-.36c.15,0,.42.29.28.33m-9.59,0h0a10.27,10.27,0,0,1,2.29-.53c1.11,0,2.51-.29,3.3.5.56.55-1.52.49-2.3.5m24.08-1.14h0a17.94,17.94,0,0,1-3.11,0c-.38-.07-.55-.69-.94-.69-.71,0-1.3.61-2,.68a1.5,1.5,0,0,1-1.33-.33c-.18-.23.23-.65.52-.71a63.79,63.79,0,0,1,10.78-1.77c.83,0,2.86.7,2.19,1.19m-15.15,1.6h0a36.29,36.29,0,0,1-4,.16c-.46,0-1.3,0-1.3-.48s.84-.43,1.3-.48a12.54,12.54,0,0,1,3,0,2.67,2.67,0,0,1,1.31.48m-460.26.32h0c-.79-.1-2.33.47-2.35-.32s1.55-.44,2.32-.34m-62,.66h0a10.79,10.79,0,0,1-2,.16c-.46,0-1.65-.15-1.31-.48a3.25,3.25,0,0,1,2.3-.48,2.26,2.26,0,0,1,1.31.48m540.77-.64h0c-.47-.13-1.52.09-1.41-.38a6.54,6.54,0,0,1,2.33-3.28c.3-.24.61.6,1,.6s.61-.61,1-.6.6.53,1,.64a1.74,1.74,0,0,0,1.06,0c.37-.11.58-.63,1-.64s.61.61,1,.6.59-.59,1-.65a15.55,15.55,0,0,1,4-.14c.72.09,1.31.94,2,.81,2.74-.51,5.21-2,7.93-2.66.4-.08.63.63,1,.64s.61-.61,1-.6.6.52,1,.64a2.36,2.36,0,0,0,1.09,0c3-.51,5.9-1.4,8.9-1.71.42,0,.66.7,1.08.68,5.22-.26,10.41-.88,15.6-1.5,7.79-.94,15.52-2.38,23.32-3.18.4,0,.63.55,1,.68a2.23,2.23,0,0,0,1.09,0c3-.51,5.9-1.4,8.9-1.71.42,0,.66.73,1.08.67,2-.28,3.89-1.37,5.92-1.67.4,0,.63.55,1,.68a2.5,2.5,0,0,0,1.09,0c6.31-.85,12.55-2.27,18.9-2.71.63,0,1.14.72,1.38,1.31.17.43.13,1.23-.31,1.36-.68.2-1.3-.67-2-.67s-1.32.64-2,.64c-.41,0-.64-.7-1-.63-3.68.64-7.2,2.13-10.9,2.7-.71.1-1.32-.7-2-.71s-1.32.63-2,.64c-.39,0-.61-.6-1-.6s-.61.61-1,.6-.64-.69-1-.64c-2.35.31-4.56,1.38-6.92,1.68-.4,0-.63-.55-1-.68a1.93,1.93,0,0,0-1.09,0c-2,.47-3.88,1.4-5.9,1.69-.42.07-.66-.72-1.08-.67-8.34,1-16.58,2.72-24.92,3.68-.42,0-.66-.72-1.08-.68-9.34,1-18.58,2.71-27.92,3.68-.42,0-.66-.74-1.08-.68-2,.29-3.89,1.38-5.92,1.67-.4.06-.61-.67-1-.67-.71,0-1.32.64-2,.64-.41,0-.64-.68-1-.64m-12.92.66h0c-.46-.1-1.12.11-1.38-.29a1,1,0,0,1,.33-1.33c.41-.15.77.46,1,.83m-74,.79h0c-.78-.1-2.32.47-2.34-.32s1.55-.44,2.32-.34m79-8.34h0c-.78-.1-2.32.47-2.34-.32s1.55-.44,2.32-.34m-542-.34h0c-.45-.11-1.33.14-1.34-.32s.88-.43,1.32-.33m-7,.65h0c-.79-.1-2.33.47-2.35-.32s1.55-.44,2.32-.34m667-1.34h0c-1.74-.52-5.23.25-5.21-1.56s3.53-.49,5.23-.1c.45.1.31.9.3,1.37m4.69-.74h0c-.34-.2-.62-.6-1-.59s-.64.73-1,.62c-.85-.23-2.87-1-2.19-1.51,1.11-.89,2.91-.62,4.25-.15m-32,.66h0c-.45-.11-1.33.14-1.34-.32s.88-.43,1.32-.33m-728-791.35h0c1.59-.53,3.24-.92,4.78-1.6,1-.44,1.82-1.26,2.82-1.74a62,62,0,0,1,6.46-2.7c5.35-1.85,10.74-3.55,16.17-5.14,4.26-1.25,8.62-2.12,12.87-3.38,3-.9,5.85-2.34,8.9-3.09.41-.1.65.72,1.07.66a27.2,27.2,0,0,0,5.72-1.61c.5-.19.71-.93,1.24-1s.64.72,1,.62c1.09-.28,1.85-1.38,2.94-1.65.41-.1.66.76,1.07.66,3.15-.78,6.1-2.22,9.19-3.19,6.59-2.06,13.2-4.07,19.86-5.88,7.28-2,14.67-3.53,22-5.5,3.34-.9,6.53-2.34,9.92-3.09.41-.09.65.73,1.07.66,2.31-.41,4.45-1.47,6.73-2,6.7-1.66,13.4-3.37,20.19-4.64.42-.08.67.76,1.08.67,5.71-1.27,11.21-3.39,16.93-4.66.4-.09.65.74,1.06.65,6.05-1.27,11.89-3.38,17.93-4.66.41-.08.66.7,1.07.66,1-.08,1.82-.75,2.77-1,4-1,8.06-2,12.16-2.67.41-.06.66.75,1.07.66,2.72-.61,5.21-2.06,7.93-2.66.41-.09.66.75,1.08.67,5.25-1,10.33-2.83,15.56-4,5.84-1.27,11.73-2.36,17.63-3.28,15.76-2.47,31.53-4.84,47.34-6.89,13.33-1.73,26.73-2.86,40.07-4.46,2.12-.25,4.19-1,6.32-1.07.42,0,.66.72,1.08.68,5.35-.63,10.58-2,15.92-2.68.4-.05.63.55,1,.68a2.12,2.12,0,0,0,1.09,0c2-.48,3.88-1.4,5.9-1.7.4-.06.62.6,1,.69a6.11,6.11,0,0,0,2.09,0c8.32-1.14,16.56-2.81,24.9-3.71.73-.08,1.31.87,2,.81,32-2.95,64-6.8,96-9.81.42,0,.66.72,1.08.68,6.67-.64,13.25-2,19.92-2.68.42,0,.66.71,1.08.68,12-1,23.92-2.71,35.92-3.69.42,0,.65.71,1.08.69,6-.32,11.93-1.37,17.92-1.69.41,0,.61.62,1,.7a10.55,10.55,0,0,0,3,.13c5.62-.47,11.24-.93,16.81-1.79.51-.08.68-1,1.2-1,.72,0,1.29.72,2,.78a40.91,40.91,0,0,0,7,0c.71-.06,1.28-.75,2-.78.39,0,.6.52,1,.64a1.93,1.93,0,0,0,1.09,0c1.66-.48,3.17-1.47,4.88-1.73.71-.11,1.34.65,2.06.66.39,0,.61-.6,1-.59s.6.52,1,.64a2.12,2.12,0,0,0,1.09,0c2.32-.49,4.55-1.4,6.9-1.7.42-.06.66.7,1.08.68,10.34-.7,20.62-2.31,31-2.83,8.32-.42,16.66-.24,25,0,.71,0,1.28.75,2,.78.39,0,.6-.55,1-.65a5,5,0,0,1,2-.13c.7.12,1.28.74,2,.78.39,0,.61-.59,1-.59s.61.59,1,.59.61-.59,1-.59.61.59,1,.59.61-.62,1-.59c.71,0,1.29.77,2,.76s1.31-.84,2-.81c6.67.35,13.27,1.41,19.92,1.95,8.32.69,16.65,1.4,25,1.74.42,0,.66-.73,1.08-.68,3,.3,5.89,1.43,8.9,1.7.71.07,1.31-.7,2-.71s1.32.64,2,.64c.41,0,.64-.65,1-.64,17.65.67,35.27,2.09,52.92,2.69.73,0,1.31-.77,2-.83a62.87,62.87,0,0,1,9,0c.71,0,1.28.75,2,.78.39,0,.59-.57,1-.65a9.35,9.35,0,0,1,3-.13c1,.14,2,.92,3,.95.71,0,1.29-.72,2-.76.39,0,.61.62,1,.59.71,0,1.29-.76,2-.76s1.29.73,2,.76c.39,0,.58-.64,1-.64.71,0,1.32.63,2,.64.39,0,.61-.59,1-.59s.61.59,1,.59.61-.59,1-.59.61.6,1,.59.64-.67,1-.63c3.67.31,7.24,1.43,10.92,1.68.73,0,1.31-.83,2-.81,1,0,2,.89,3,1,4.34.27,8.72-.46,13,0,.91.11,1.28,1.47,2.17,1.7.62.15,1.15-.64,1.79-.7a32.5,32.5,0,0,1,6,0c.71.07,1.28.75,2,.78.39,0,.59-.57,1-.65a9.64,9.64,0,0,1,3-.13c.71.09,1.28.71,2,.78.31,0,.5-.63.79-.51.62.26.8,1.17,1.41,1.43.3.12.49-.54.8-.51s.6.52,1,.64a1.91,1.91,0,0,0,1.06,0c.37-.12.58-.64,1-.64s.61.61,1,.59.6-.55,1-.65a4.81,4.81,0,0,1,2-.13c.7.13,1.28.67,2,.84a5.16,5.16,0,0,0,2,.13c.72-.12,1.31-.88,2-.82,3,.23,5.91,1.37,8.92,1.67.4,0,.63-.55,1-.68a1.91,1.91,0,0,1,1.06,0c.69.19,1.27.73,2,.83a9.35,9.35,0,0,0,3-.13c.38-.08.58-.64,1-.65s.61.61,1,.59.6-.55,1-.65a6,6,0,0,1,2-.13c10,.85,19.94,2.18,30,2.85.74,0,1.36-.76,2.1-.71,4.32.32,8.59,1.1,12.86,1.81,1.39.23,2.7.85,4.11,1a9.29,9.29,0,0,0,3-.13c.4-.08.6-.73,1-.7,8,.64,15.92,2,23.92,2.69.4,0,.63-.66,1-.64.71,0,1.29.76,2,.76s1.29-.72,2-.76c.39,0,.61.6,1,.59s.64-.7,1-.63c1.7.31,3.22,1.3,4.9,1.7a4.61,4.61,0,0,0,2.09,0c.39-.09.6-.74,1-.69,2.68.3,5.22,1.42,7.9,1.7.72.08,1.34-.66,2.06-.66.39,0,.6.52,1,.64a1.82,1.82,0,0,0,1.06,0c.38-.13.61-.72,1-.68,6.66.64,13.23,2.1,19.9,2.7.73.07,1.36-.73,2.1-.71,9.65.31,19.27,1.36,28.92,1.69.42,0,.66-.77,1.07-.67,1.09.28,1.84,1.36,2.91,1.68a2.15,2.15,0,0,0,1.54-.35c.59-.32.88-1.13,1.52-1.3.38-.1.6.52,1,.64s.89.29,1,0-.45-.9-.32-1.34.55-1.21,1.1-1.21,1,1.27,1.66,1.24.88-1.39,1.58-1.36c2.7.09,5.24,1.38,7.92,1.67.42.05.66-.73,1.08-.67,4.93.71,9.72,2.2,14.64,2.95,5.4.81,10.83,1.4,16.28,1.73.42,0,.66-.72,1.08-.68,3.66.31,7.23,1.44,10.9,1.7,1,.08,2-.7,3.09-.71.39,0,.56.62.94.7a4.8,4.8,0,0,0,2.68,0c.76-.29,1-1.38,1.7-1.76a.75.75,0,0,1,1,.36c.09.38-.51.63-.6,1,0,.13.16.32.3.29.7-.15,1.29-.69,2-.78a9.64,9.64,0,0,1,3,.13c.38.08.58.67,1,.65.72,0,1.29-.73,2-.78a37,37,0,0,1,7.06.11A53,53,0,0,1,1363,78c1,.3,1.41,1.84,2.43,1.86,2.07,0,4-1,6-1.71.55-.2,1.24-.44,1.47-1a5.09,5.09,0,0,0,.1-2.66c-.13-1-1-2-.82-3,.15-.85,1.39-1.14,1.69-1.95a8,8,0,0,0,.14-3,3.27,3.27,0,0,0-.31-1.31,20.6,20.6,0,0,0-2.51-4.5,8,8,0,0,0-3-2,26.33,26.33,0,0,0-16.78-2.61c-1.41.18-2.52,1.4-3.91,1.69-.39.09-.63-.62-1-.62s-.61.59-1,.59-.61-.62-1-.59c-.72,0-1.29.74-2,.78a70.16,70.16,0,0,1-12,0c-.91-.11-1.32-1.35-2.17-1.7-.29-.11-.48.54-.79.51s-.6-.52-1-.64a1.82,1.82,0,0,0-1.06,0c-.38.13-.61.73-1,.68a37.73,37.73,0,0,1-7-1.59c-2.69-.86-5.18-2.28-7.88-3.11a4.11,4.11,0,0,0-2.09,0c-.38.09-.57.57-.94.7a1.34,1.34,0,0,1-1.06,0c-.31-.19-.27-.72-.54-1a7.09,7.09,0,0,0-2.4-1.69c-.38-.12-.63.63-1,.62s-.59-.57-1-.65a9.64,9.64,0,0,0-3-.13c-.92.12-1.73,1-2.65.85s-1.42-1.43-2.34-1.73c-.39-.12-.61.65-1,.66s-.61-.59-1-.59-.63.72-1,.59c-.81-.26-1.19-1.32-2-1.59-.37-.13-.61.6-1,.59s-.6-.52-1-.64a1.82,1.82,0,0,0-1.06,0c-.38.13-.61.76-1,.67-5.47-1.12-10.75-3.08-16.21-4.22-5.87-1.22-11.82-2.06-17.76-2.85-10.3-1.36-20.61-2.65-31-3.59-.42,0-.66.7-1.08.68-19-1-37.93-2.7-56.92-3.69-.42,0-.66.74-1.08.68-11.11-1.41-22.12-3.57-33.22-5-6.8-.9-13.63-1.51-20.46-2.06-6.06-.49-12.13-.8-18.2-1.07-20.68-.92-41.35-1.91-62-2.51-.41,0-.6.69-1,.69-1,0-2-.68-3.06-.69-.39,0-.58.64-1,.64s-.61-.6-1-.59-.64.66-1,.64c-6.66-.33-13.26-1.37-19.92-1.69-.4,0-.62.56-1,.69a2.67,2.67,0,0,1-1.09,0c-4.64-.52-9.24-1.39-13.9-1.71-.4,0-.61.68-1,.69-.71,0-1.32-.64-2-.64-.39,0-.58.64-1,.64-.71,0-1.32-.63-2-.64-.39,0-.61.59-1,.59s-.61-.6-1-.59-.64.67-1,.64c-4.35-.37-8.62-1.4-13-1.83a15.93,15.93,0,0,0-4,.13c-.7.12-1.26.82-2,.82-1,0-2-.77-3-.81-.4,0-.61.74-1,.68-2-.29-3.88-1.45-5.92-1.67-.73-.08-1.32.7-2,.82a5,5,0,0,1-2-.13c-.37-.1-.58-.65-1-.65s-.58.64-1,.64c-.71,0-1.3-.68-2-.69s-1.32.64-2,.64c-.39,0-.58-.64-1-.64-.71,0-1.3.6-2,.7a16.48,16.48,0,0,1-4,.13c-.71-.08-1.26-.79-2-.83s-1.32.67-2,.64-1.29-.76-2-.76-1.29.76-2,.76-1.29-.77-2-.76-1.26.79-2,.81-1.3-.68-2-.69-1.32.63-2,.64c-.39,0-.61-.59-1-.59s-.63.72-1,.59c-.81-.26-1.19-1.33-2-1.59-.37-.12-.59.57-1,.65a5.1,5.1,0,0,1-2.06,0c-.38-.08-.58-.65-1-.65s-.64.72-1,.62c-1.09-.28-1.85-1.38-2.94-1.65-.39-.09-.6.67-1,.67-1,0-2-.68-3.06-.69-.39,0-.58.64-1,.64s-.61-.6-1-.59-.6.55-1,.65a4.81,4.81,0,0,1-2,.13c-.7-.12-1.27-.72-2-.84a15.54,15.54,0,0,0-4-.13c-.71.08-1.28.74-2,.78-.39,0-.61-.6-1-.59s-.64.66-1,.64c-4.66-.33-9.26-1.36-13.92-1.69-.4,0-.63.66-1,.64-.72,0-1.29-.78-2-.78-1.37,0-2.66.83-4,.83-.71,0-1.26-.8-2-.83-6-.25-12-.23-18,0-.71,0-1.28.78-2,.78s-1.29-.72-2-.78a65.38,65.38,0,0,0-7,0,8.6,8.6,0,0,0-2,.14c-.37.1-.58.64-1,.65s-.61-.6-1-.59-.59.57-1,.65a5.1,5.1,0,0,1-2.06,0c-.38-.08-.58-.65-1-.65s-.6.55-1,.65a8.1,8.1,0,0,1-2,.14,14.59,14.59,0,0,1-3-.14c-.38-.08-.55-.7-.94-.7-.71,0-1.3.68-2,.69s-1.32-.65-2-.64c-.39,0-.6.55-1,.65a8.1,8.1,0,0,1-2,.14,14.59,14.59,0,0,1-3-.14c-.38-.08-.55-.69-.94-.7-.71,0-1.32.63-2,.64-.39,0-.61-.6-1-.59s-.6.55-1,.65a8.1,8.1,0,0,1-2,.14,15.32,15.32,0,0,1-3-.14c-.38-.08-.58-.65-1-.65s-.58.64-1,.64c-.71,0-1.32-.64-2-.64-.39,0-.6.52-1,.64a1.82,1.82,0,0,1-1.06,0c-.38-.13-.61-.72-1-.68-3.36.34-6.6,1.52-10,1.81-.71.05-1.26-.79-2-.82s-1.32.63-2,.64c-.39,0-.61-.59-1-.59s-.61.61-1,.59-.59-.56-1-.65a5.08,5.08,0,0,0-2.09,0c-2,.42-3.88,1.39-5.9,1.7-.4.06-.63-.63-1-.63s-.61.62-1,.59c-.71,0-1.29-.76-2-.76s-1.29.76-2,.76-1.29-.77-2-.76-1.26.79-2,.81c-1,0-2-.88-3.06-.69-.84.16-1.13,1.46-2,1.64s-1.29-.76-2-.76-1.29.72-2,.76c-.39,0-.61-.59-1-.59s-.61.59-1,.59-.61-.6-1-.59-.58.64-1,.64c-.71,0-1.3-.68-2-.69s-1.32.63-2,.64c-.39,0-.61-.59-1-.59s-.61.59-1,.59-.61-.59-1-.59-.61.59-1,.59-.63-.72-1-.59c-.81.27-1.19,1.32-2,1.59-.37.13-.61-.59-1-.59s-.61.59-1,.59-.61-.6-1-.59-.6.55-1,.65a5,5,0,0,1-2,.13c-.72-.12-1.31-.85-2-.83-8.34.32-16.62,1.55-25,1.84-8.66.32-17.33.24-26,0-.71,0-1.28-.75-2-.78-.39,0-.6.55-1,.65a5,5,0,0,1-2,.13c-.7-.12-1.3-.93-2-.78s-1.19,1.33-2,1.59c-.37.13-.61-.59-1-.59s-.61.59-1,.59-.61-.62-1-.59c-.72,0-1.29.74-2,.78a109.17,109.17,0,0,1-12,0c-.71,0-1.28-.75-2-.78-.39,0-.59.63-1,.64-.64,0-1.21-.73-1.82-.56-.88.26-1.28,1.48-2.17,1.7a10.17,10.17,0,0,1-4.07-.13c-.38-.07-.57-.57-.94-.7a2.23,2.23,0,0,0-1.09,0c-3.31.51-6.57,1.38-9.9,1.7-.4,0-.63-.63-1-.63s-.61.6-1,.59-.58-.64-1-.64c-.71,0-1.32.64-2,.64-.41,0-.64-.66-1-.64-11,.67-21.93,2-32.92,2.69-.4,0-.6-.68-1-.69-.71,0-1.32.64-2,.64-.41,0-.64-.68-1-.64-6.33.66-12.56,2.09-18.9,2.71-.72.07-1.34-.65-2.06-.66-.39,0-.61.6-1,.59s-.58-.64-1-.64c-.71,0-1.32.64-2,.64-.39,0-.6-.52-1-.64a2.24,2.24,0,0,0-1.09,0c-2.65.49-5.22,1.4-7.9,1.7-.42,0-.66-.71-1.08-.68-8.66.65-17.26,2-25.92,2.69-.42,0-.66-.75-1.08-.68-3.69.62-7.2,2.12-10.9,2.7-.71.11-1.34-.66-2.06-.66-.39,0-.6.52-1,.64a1.82,1.82,0,0,1-1.06,0c-.38-.13-.61-.74-1-.68-1.71.29-3.19,1.67-4.92,1.67-.89,0-1.19-1.66-2.07-1.66-1.43,0-2.54,1.37-3.94,1.65-.39.09-.63-.63-1-.62s-.6.52-1,.64a1.82,1.82,0,0,1-1.06,0c-.36-.13-.57-.56-.94-.69a1.76,1.76,0,0,0-1.09,0c-1.34.46-2.52,1.41-3.91,1.69-.39.09-.61-.59-1-.68a4.93,4.93,0,0,0-2.06,0c-.38.09-.58.65-1,.65s-.63-.65-1-.63c-1.34.08-2.59.72-3.91.91-4.66.7-9.32,1.43-14,1.77-.42,0-.66-.73-1.08-.68-8.26.87-16.48,2.15-24.69,3.41-4.45.68-8.82,1.81-13.27,2.4a2.5,2.5,0,0,1-1.48-.47c-.58-.34-.87-1.45-1.52-1.3s.52,1.41,0,1.63c-1.22.55-2.68.28-4,.15-1.05-.1-2-.87-3.05-.83-.35,0,.82.72.53.92a12.06,12.06,0,0,1-4.44,1.76c-.42.08-.66-.72-1.08-.67-3.36.35-6.61,1.47-10,1.82a16.84,16.84,0,0,1-6-.15c-.45-.11.46-.9.32-1.34a.7.7,0,0,0-.88-.37c-.7.44-.75,1.89-1.57,1.91s-1-1.63-1.85-1.83a1.16,1.16,0,0,0-1.21,1.09c.06.66,1.36.73,1.43,1.39,0,.43-.87.46-1.27.29-.9-.39-1.36-1.56-2.31-1.84-.56-.17-1.05.68-1.64.66s-1.29-.7-2-.76c-.46,0-1.36,0-1.3.46.1.85,1.18,1.26,1.6,2,.07.13-.13.32-.28.33a12.37,12.37,0,0,1-3,0c-.33,0-.48-.63-.8-.57s-.59,1-1,.87-.7-1.13-1.28-1.31a2.2,2.2,0,0,0-1.65.45c-.57.34-.75,1.44-1.41,1.42s-1-1.56-1.83-1.54c-1.43,0-2.54,1.37-3.94,1.65-.39.09-.63-.62-1-.62s-.61.6-1,.59-.6-.52-1-.64a1.44,1.44,0,0,0-1.06,0c-.74.42-1.11,1.48-1.94,1.69s-1.35-.81-2.06-.67c-1.1.23-1.85,1.32-2.92,1.69-.85.29-1.88-.12-2.71.24-.68.3-.87,1.3-1.55,1.61-.29.13-.46-.5-.77-.57a5,5,0,0,0-2.08,0c-3.6.86-7.09,2.15-10.68,3.06-6.29,1.6-12.66,2.85-18.95,4.44-1.13.29-2.12,1.05-3.28,1.19-.4,0-.6-.66-1-.67-.71,0-1.32.64-2,.64-.41,0-.63-.65-1-.63-1.34.08-2.59.72-3.91.91-4.66.7-9.32,1.43-14,1.77-.42,0-.66-.73-1.08-.68-9,1-17.95,2.75-27,3.81a2.5,2.5,0,0,1-1.48-.47c-.58-.34-.87-1.16-1.52-1.3-.34-.08.52.92.19,1a138.65,138.65,0,0,1-15.15,2.63c-.33.05-.52-.67-.83-.55-.63.25-.76,1.28-1.41,1.43s-1.16-.7-1.8-.68-1.3.92-2,.76-1.22-1.23-2-1.64c-.32-.17-1.12-.36-1.08,0,.08.66,1.24.88,1.26,1.55s-.67.93-1.18,1.14a2,2,0,0,1-1.3-.13c-1.26-.43-2.39-1.2-3.67-1.58a2.81,2.81,0,0,0-1.72,0c-.72.28-1.17,1-1.84,1.39-.1.06-.2-.28-.28-.2-.82.76-1.14,2.24-2.22,2.5-.76.19-1-1.44-1.8-1.51s-1,1.06-1.67,1.24-1.06-.55-1.56-.37c-.8.29-1.18,1.32-2,1.64-.29.12-.5-.59-.81-.51-.52.13-.73.86-1.24,1a3.9,3.9,0,0,1-1.95,0c-.38-.08-.57-.73-.95-.66-.53.08-.72.9-1.24,1-.31.07-.47-.49-.78-.56a2.69,2.69,0,0,0-1.68,0c-.9.38-1.41,1.46-2.34,1.76-.38.13-.61-.66-1-.66s-.6.52-1,.64a1.91,1.91,0,0,1-1.06,0c-.37-.12-.6-.76-1-.64-.81.26-1.19,1.34-2,1.59-.37.12-.59-.56-1-.65a4.07,4.07,0,0,0-2.08,0,6,6,0,0,0-2.73,1.67,11.43,11.43,0,0,0-1.59,3.64c-.17.51.18,1.23-.21,1.6a7.38,7.38,0,0,1-3.36,1.82,15.89,15.89,0,0,1-5.06.12c-.71-.07-1.28-.75-2-.78-.39,0-.6.52-1,.64a1.82,1.82,0,0,1-1.06,0c-.37-.13-.55-.68-.94-.69-.71,0-1.32.64-2,.64-.39,0-.6-.52-1-.64a1.93,1.93,0,0,0-1.09,0,31,31,0,0,0-4.69,1.63,2.83,2.83,0,0,0-1,1,41,41,0,0,0-2.57,4.63,1.55,1.55,0,0,0-.11,1.06c.45,1.61.73,3.37,1.72,4.72a6.64,6.64,0,0,0,3.7,2.64c3,.64,6,.33,9.05.12,1.05-.07,2-.84,3-1,1.67-.21,3.41.38,5,0,.9-.23,1.22-1.73,2.14-1.76a7.34,7.34,0,0,1,4.56,1.54c1.56,1.21,2.52,3,3.56,4.73.1.18-.14.44-.33.51-9.52,3.68-19.35,6.58-28.69,10.68a36.75,36.75,0,0,0-7.91,5.39,4.91,4.91,0,0,0-1.73,2.37,10.6,10.6,0,0,0-.13,4.05c.08.71.75,1.29.79,2,0,.38-.53.6-.64,1a1.21,1.21,0,0,0,0,1,11.75,11.75,0,0,0,2.86,3c.36.23.88-.39,1.27-.22,1.51.69,2.65,2,4.16,2.69a1.18,1.18,0,0,0,1.28-.32c.17-.23-.89-.52-.62-.57,9.22-1.87,18.56-3.06,27.77-4.92,3.91-.79,7.65-2.27,11.56-3,1.07-.21,4-.62,3.27.15-1.53,1.5-4,1.53-5.93,2.46-.5.25-.74,1-1.28,1.05-.38.07-.6-.52-1-.64a1.93,1.93,0,0,0-1.09,0c-4.67,1.46-9.18,3.42-13.91,4.69-.4.11-.65-.74-1.06-.65-1.4.28-2.55,1.33-3.93,1.65-.32.08-.52-.65-.83-.54-.86.33-1.34,1.31-2.16,1.7-.51.24-1.3-.28-1.69.12-1.2,1.24-2.5,2.7-2.71,4.41s.95,3.21,1.62,4.73c.22.5.93.72,1,1.25s-.8.68-.6,1,.78-.42,1.08-.21c.7.48.91,1.47,1.55,2m34.38-23.78h0a4,4,0,0,1,1.28-.49c.47,0,1.31,0,1.31.47s-.84.46-1.3.46m4-1.14h0c-.78-.11-2.32.46-2.34-.32s1.55-.45,2.32-.34m7-1.35h0c-.45-.1-1.33.15-1.34-.31s.88-.44,1.32-.33m-7-10.36h0c-.45-.1-1.33.15-1.34-.31s.88-.44,1.32-.33m8-1.36h0c-.45-.1-1.33.15-1.34-.31s.88-.44,1.32-.33m6-.35h0c-.78-.11-2.32.46-2.34-.32s1.55-.45,2.32-.34m-13-11.33h0a56.94,56.94,0,0,1-6.61-1.63c-.42-.16.84-.34,1.28-.41,5.52-.92,11.09-1.6,16.61-2.55,1.56-.27,3.06-.86,4.63-1.11a6.91,6.91,0,0,1,2.08,0c.17,0,.49.27.35.36A19.89,19.89,0,0,1,232,95.46a42.07,42.07,0,0,1-7.45,2.42c-.71.12-1.33-.59-2-.72a4.31,4.31,0,0,0-2.08,0m18.12-3.28h0a6.43,6.43,0,0,1-1.45-.37c-.13-.07-.17-.39,0-.45a37.93,37.93,0,0,1,5.37-1.87c.18,0,.56.26.41.36m5.67.3h0a25.69,25.69,0,0,1-3,.16c-.46,0-1.72-.28-1.3-.48a7.48,7.48,0,0,1,3.3-.49,2.27,2.27,0,0,1,1.31.49m2.73-.68h0c-.78-.11-2.32.46-2.34-.32s1.55-.45,2.32-.34m16-2.34h0c-.79-.11-2.33.46-2.35-.32s1.55-.45,2.32-.34m3-.35h0c-.45-.1-1.33.15-1.34-.31s.88-.44,1.32-.33m3-.36h0c-.45-.1-1.33.15-1.34-.31s.88-.44,1.32-.33m205-4.36h0c-.45-.1-1.33.15-1.34-.31s.88-.44,1.32-.33m89-9.36h0c-.45-.1-1.33.15-1.34-.31s.88-.44,1.32-.33m3.05-3.33h0c-.7,0-1.49.34-2.09,0-.41-.23-.41-.91-.31-1.37.05-.21.44-.25.63-.14m-4.26,1.48h0c-.45-.1-1.33.15-1.34-.31s.88-.44,1.32-.33m18-.36h0c-.45-.1-1.33.15-1.34-.31s.88-.44,1.32-.33m-2.95.67h0c-1.36,0-2.71.22-4.07.14-.46,0-1.3,0-1.3-.48s.71-1.12,1.3-1.3c.37-.12.61.6,1,.59s.65-.75,1-.62m11,.65h0a25.69,25.69,0,0,1-3,.16c-.46,0-1.72-.28-1.3-.48a7.5,7.5,0,0,1,3.3-.49,2.27,2.27,0,0,1,1.31.49m7.73-.69h0c-.45-.1-1.33.15-1.34-.31s.88-.44,1.32-.33m11-.35h0a12.54,12.54,0,0,1-2,.16c-.46,0-1.65-.16-1.31-.48a3.25,3.25,0,0,1,2.3-.49,2.27,2.27,0,0,1,1.31.49m129.73-8.68h0c-.78-.11-2.32.46-2.34-.32s1.55-.45,2.32-.34m-387,.65h0c-.45-.1-1.33.15-1.34-.31s.88-.44,1.32-.33m429-.35h0c-.78-.11-2.32.46-2.34-.32s1.55-.45,2.32-.34m-416-.35h0c-.45-.1-1.33.15-1.34-.31s.88-.44,1.32-.33m35.27-5.65h0a4,4,0,0,0-1.28-.49c-.47,0-1.31,0-1.31.47s.84.46,1.3.46m6.29-1.44h0a5.68,5.68,0,0,0-1.31-.36c-.15,0-.4.26-.28.34a2.63,2.63,0,0,0,1.33.33" fill="#bfbfbf"/>
  <path d="M356.76,311.11v0l0-.08,0-.22,0-.33,0-.34v-.31l.06-.35.09-.29.08-.25.1-.24,0-.24v-.17l.07-.19,0-.2v-.17l-.05-.13,0-.14-.05-.15-.13-.09-.1-.12-.06-.13,0-.12-.1-.07-.1-.06-.2-.1-.16-.13-.09-.09-.11-.05-.11.09h-.31l-.12-.25.07-.08-.1-.09-.07-.07-.12.17L355,306l-.14-.26,0-.06-.06-.05-.05,0-.08,0h-.38l-.17-.05h-.06l-.06,0,0,0-.09,0-.07,0,0,.09-.18,0-.19.1-.15.05-.17.07-.46.15-.4.2-.05.13-.33.22-.49.32-.49.32-.62.48-.74.46-.6.43-.65.46-.7.65-.78.74-.75.92-1,.91-.78.83-.51.78-.7.87-.71.93-.73.92-.6,1.48-.69,1.32-.56.51-.38.82-.43,1-.41,1L338.2,324l-.13,1.22-.23,1-.31.88-.33,1-.39,1-.32,1-.14,1.28-.21,1.19-.29.75-.23.85-.17.95-.15,1.06-.2,1,.17.87v.76l-.37.84-.15.88-.07.83-.13.86-.16.73.25.62,0,.82-.41.83-.11.78,0,.73.06.87.25.79.08.66-.07.7.06.75.07.81.08.8.14,1.2.51,1,.38.47,0,.63.12.67.19.68.25.71.23.69.2.58.29.54.33.56.31.59.31.22.35.49.4.86.42.55.35.51.36.52.38.54.37.22.24.48.31.72.46.56.41.55.43.55.5.51.52.48.43.61.52.57.59.51.52.49.55.47.53.26.53.32.58.55.54.49.55.44.58.44.58.35.46.36.55.34.73.33.69.29.66.31.65.27.75.25.65.25.66.13.78.14.82.13.83.08.83-.24h.72l.7.34.84.13.78.06.74.07.79,0,.84-.24.75,0,.62.18.72,0h.74l.73,0,.61-.47.69-.22.74.23.74,0,.64,0,.71-.11.72-.24.65-.5.71-.15h.72l.71-.14.74-.2.74-.29.69-.38.53-.28.6-.23.82-.32.78-.43.69-.45.66-.5.56-.56.59-.42.78-.42.68-.54.66-.5.68-.53.67-.3.38-.44.37-.68.62-.65.49-.65.42-.59.4-.62.51-.6.53-.64.46-.7.45-.72.44-.68.42-.72.38-.68.2-.72.38-.8.54-.77.41-.79.36-.78.33-.63.22-.73.3-.89.32-.92.27-1,.2-.94.13-.93,0-1,.21-1,.3-.94.14-1,.15-1.05.21-1.13v-1l-.08-1.08v-1.23l0-1.11,0-1.18.14-1.28L397,336.2l0-1.26,0-1.19-.14-1.33-.05-1.5.06-1.6-.06-1.6-.18-1.5-.17-1.51-.09-1.61-.12-1.61-.16-1.59-.24-1.64-.26-1.74,0-1.5-.22-1.29-.47-1.38L394.6,311l-.41-1.39-.41-1.32-.51-1.43-.37-1.28-.38-1-.56-1-.58-1-.49-1-.44-1.18-.39-1-.54-.53-.57-.68-.64-.6-.6-.59-.57-.53-.6-.78-.56-.63-.54-.25-.63-.44-.75-.43-.76-.33-.7-.46-.78-.54-.89-.28-.81-.22-.82-.22-.88-.25-1-.27-.8-.4-.84-.18-1.1-.06-1.12-.19-1.14-.15-1.21-.09-1.19-.13-1.17-.14h-1.34l-1.4.06-1.38.09-1.44.11-1.53.07-1.28.23-1.46.3-1.76.36-1.78.35-1.75.4-1.74.52-1.69.31-1.42.62-1.48.91-1.7.9-1.53.94-1.46,1-1.43,1.06-1.39.76-1.35,1-1.34,1.38-1.35,1.37-1.39,1.38-1.31,1.35-1.25,1-1.08,1.14-1,1.38-.9,1.31-.76,1.31-.7,1.33-.51,1.42-.63,1.48-.46,1.44-.13,1.41-.11,1.37,0,1.42,0,1.44.16,1.65,0,1.57.3,1.19.62,1.26.54,1.37.64,1.44.82,1.43.7,1.25h0l1.52,2.74h0" fill="none" stroke="#000" stroke-linejoin="round" stroke-width="4"/>
  <path d="M368.28,385.53h0v-.13l-.07-.2-.1-.25,0-.39h0l-.06.05,0-.05-.05-.05-.09-.09-.07-.06,0-.09h-.07l-.08.12.12,0,0,0-.11.05,0-.06.06.07v.19l-.08.05-.05.11-.05.08,0,.2,0,.26.05.05-.1.09-.15.16.08.12-.08.17-.09.31-.05.34-.27.34-.41.62-.36.81-.41.9-.37,1.15-.42,1.49-.41,1.37-.42,1.25-.51,1.32-.47,1.4-.44,1.49-.28,1.39-.36,1.46-.32,1.66-.2,1.69-.19,1.72-.16,1.68-.15,1.55,0,1.65-.09,2-.25,2-.19,1.9-.1,1.82-.12,1.81-.07,1.35-.14,1.4-.13,1.88-.09,1.79-.07,1.68-.12,1.68-.13,1.65,0,1.55-.11,1.58-.14,1.66L359,439l-.09,1.59-.19,1.61-.28,1.67-.12,1.53-.13,1.31-.16,1.31-.08,1.29-.11,1.27-.1,1.37-.15,1.22-.16.81,0,.8.09.82,0,.75,0,.57,0,.58v.63l0,.51.08.32,0,.32,0,.31.1-.15-.14.08.05.35.27.21,0,.19v0l0,.05v-.06l-.12,0-.06.15.08,0v.11h-.08v-.29l-.09-.2,0,.14.08.11.07.06v.05l0,.1-.09-.06,0-.07v.07l0,0v-.17h0v.07l-.14,0v.13l.12,0-.06,0,.06,0h0l-.05.33h0l0,.52h0" fill="none" stroke="#000" stroke-linejoin="round" stroke-width="4"/>
  <path d="M358.53,459.58h0l0,.1h.05l-.05-.22-.21,0-.22.06-.17,0-.19.05.19,0-.11,0-.4-.07-.12.1h-.12l-.16-.18-.26.24v.26l-.2-.15-.45.06-.33.11-.3.09-.37.16-.24.23-.47.25-.72.29-.75.43-.82.45-.84.34-.79.66-.95,1-1.19,1-1.1,1.23-1.16,1.27-1.25,1.34L343.55,470l-1.41,1.45-1.4,1.76L339.4,475l-1.51,1.8-1.57,1.88-1.66,2.07-1.56,2.16L331.24,485l-1.91,2.21-1.67,2.26-1.82,2.18L324,494l-1.77,2.42-2,2.08-1.88,1.92-1.61,2-1.69,2-1.66,1.88-1.56,1.89-1.52,1.69-1.81,1.43-1.54,1.4-1,1.32-1.17,1.25-1.16.93-1.18,1-1.2,1.26-1.14,1.08-.94,1.08-.88,1-.86,1-.74.15-.78.57-.9,1.28-.88,1-.54.76-.49.58-.47.32-.5.3-.29.45-.22.41-.27.34-.19.34-.15.23-.07-.14h-.22l-.06.29.16.15-.06.09v.3h0l-.09.07h0v-.08l-.08.08.09.09v.21l.13.07,0,0-.16.23-.16.21-.07.28,0,.24-.06-.11.26.09.1.36-.28.12-.14.15-.09.15,0-.31h.09l.11.41,0,.21,0,.16,0,.14.12.22.06-.12.18-.06.15.31.17.18.15,0,.17,0h.62l.36,0,.41-.06.36-.09.41-.2h0l1.05-.64L295,532l.56-.58h0" fill="none" stroke="#000" stroke-linejoin="round" stroke-width="4"/>
  <path d="M356.11,464.16l0,0,0-.22,0-.37,0-.59-.05-.64,0-.69.13-.66.17-.51.18-.31.07-.23.09-.13.11-.18.06-.18-.12-.15.1-.1.25,0,.14-.1.15,0,.09-.07v-.11h0l.09.14,0,.11v.12l.05.15v.31l-.28.14,0,.06.13.13,0,.07,0,.07,0,.19h0l-.17-.07-.14.21.22.08.15.14.09.22.13.4.26.43.4.26.52.54.56.72.56.87.6,1.23.65,1.3.64,1.08.62,1.34.75,1.49.75,1.52.68,1.59.65,1.95.76,1.92.69,1.69.51,1.75.52,1.89.49,2L369,487l.39,2.1.56,1.91.5,2,.28,2.08.38,2,.32,1.82.35,1.75.36,1.82.26,1.93.34,1.88.37,1.7.31,1.61.38,1.43.37,1.49.49,1.65.35,1.59.16,1.47.29,1.35.3,1.42.42,1.35.36,1.28.19,1.19.25,1.18.29,1.19.32,1.11.27,1.28.6,1,.54.51.08.6.19.58.26.54.23.61.35.58.45.35.22.35.06.3.19.25.16.18.08.51.34.26.07-.24-.13.07.12-.09h0v-.1l-.08-.07v0l-.05-.19-.17-.07-.09-.17h-.07l-.08,0-.07-.07-.14-.07,0-.07v0l0-.06v-.07H381l0,0,.07-.06v0l-.05-.2h0" fill="none" stroke="#000" stroke-linejoin="round" stroke-width="4"/>
  <path d="M262.51,461.84h0l-.24-.09-.62-.34-.9-1-1.13-1.11-1.16-.47-.59-.62-.43-.5-.41-.41-.2-.59-.12-.49,0,0,.08,0,.06.05.06.07.14.1h.16l.06.07.24.3.4.2.07.22.2.13.24.11.25.09.38.12.49.14h.65l.69-.06.71-.15.8-.21.9-.2.9-.21.89-.28.92-.31,1-.38,1.11-.31,1.24-.34,1.19-.47,1.2-.43,1.37-.49,1.48-.53,1.61-.68,1.78-.64,2.27-.7,2.24-.9,1.85-.92,2-.87,2.25-.81,2.4-.95,2.41-1,2.65-1,3.08-1.13,3.35-1.17,3.42-1.28,3.47-1.37,3.52-1.61,3.6-1.47,3.76-1.23,3.76-1.4,3.9-1.46,4-1.48,4-1.6,4-1.58,4-1.38,3.86-1.51,3.73-1.52,3.65-1.47,3.67-1.45,3.69-1.59,3.66-1.54,3.54-1.33,3.43-1.28,3.29-1.24,3.27-1.21,3.14-1.14,3-1,2.9-.89,2.66-.94,2.52-.91,2.44-.86,2.27-.69,2.06-.42,2-.66,2-.86,1.73-.57,1.59-.54,1.52-.51,1.49-.11,1.32-.16,1.37-.61,1.64-.45,1.55-.47,1.55-.36,1.43-.38,1.43-.15,1.41-.36,1.39-.56,1.36-.36,1.31-.33,1.3-.4,1.32-.32,1.36-.21,1.39-.42,1.25-.47,1.13-.41,1.09-.34,1-.68,1-.4.86-.12.74-.36L440,394l.65-.23.55-.19.43-.32L442,393l.29.06h.17l0,0,0,0v.1l-.11.14-.16.07-.18.07-.15.08,0,.11h-.32l-.09.12v-.08l-.09.24.1.16,0-.19-.12,0,0-.05h.1l.25.05.11-.1-.17-.13,0,.06,0-.14,0-.34.22-.16.06.11-.11.06,0,0v-.13l.08-.23,0,.1-.08.13v.14l0-.36.12-.24v.34l-.07.16,0,.09-.06.08,0-.05v-.14l-.06.05v.13l0,.07.06,0v0l-.05,0-.08,0,0,.12.08,0h-.11v-.09l0-.06h.06l.34-.05h0" fill="none" stroke="#000" stroke-linejoin="round" stroke-width="4"/>
</svg>
